<?xml version="1.0" encoding="utf-8" ?>
<svg baseProfile="full" height="200mm" version="1.1" viewBox="0,0,200,200" width="200mm" xmlns="http://www.w3.org/2000/svg" xmlns:ev="http://www.w3.org/2001/xml-events" xmlns:xlink="http://www.w3.org/1999/xlink"><defs /><rect fill="#1a1a1a" height="200" width="200" x="0" y="0" /><text alignment-baseline="middle" fill="#e1ed5e" style="dominant-baseline: central; font-size:9.0px; font-family:Arial;" text-anchor="middle" x="100.0" y="100.0">2023</text><line stroke="#e1ed5e" stroke-width="0.3" x1="100.0" x2="100.0" y1="15.0" y2="10.0" /><path d="M 100.0 14.0 a86.0,86.0 0 0,1 42.46469731375804,11.215312516191453" fill="none" id="id85" stroke="none" /><text fill="#e1ed5e" style="font-size:6.75px; font-family:Arial;" text-anchor="middle"><textPath startOffset="22.20632615414155" xlink:href="#id85">January</textPath></text><path d="M 100.0 79.0 l 0.0 -11.283679366438356 a32.283679366438356,32.283679366438356 0 0,0 0.5557104709552748,0.004783175467569091 l -0.1942299916827465 11.282007567579345" fill="#ff7c0b" stroke="none" /><path d="M 100.72285384407766 79.0124445844662 l 0.5179962601198211 -15.039658851334847 a36.04857662671233,36.04857662671233 0 0,0 0.6199654251453726,0.026697015338673843 l -0.7768025176545252 15.028514109471978" fill="#ffaf10" stroke="none" /><path d="M 101.44485096284872 79.0497635885617 l 0.749377271110203 -10.865917243231316 a31.891727311643834,31.891727311643834 0 0,0 0.547337685776067,0.04248393856667721 l -0.9363051462486112 10.851408042476175" fill="#ff770a" stroke="none" /><path d="M 101.80526077348638 79.07773832637324 l 1.9321352116229882 -22.39268646398108 a43.47588827054795,43.47588827054795 0 0,0 0.7450418936191517,0.0707507051602346 l -2.317302232332384 22.356110214305666" fill="#f0ff19" stroke="none" /><path d="M 103.2404852339499 79.25152402106235 l 1.0474702055460499 -6.706838275554716 a27.78814212328767,27.78814212328767 0 0,0 0.4719627957637512,0.07787790523430059 l -1.1627622074486763 6.687814107380791" fill="#ff3c05" stroke="none" /><path d="M 105.71112130821622 79.79150937346287 l 3.10902833460011 -11.001126848245546 a32.43200984589041,32.43200984589041 0 0,0 0.5359154607340048,0.1564484187577981 l -3.297934013057542 10.945980100569045" fill="#ff7e0b" stroke="none" /><path d="M 109.73455568895987 81.39251694778311 l 5.415888399467763 -10.352403830827779 a32.68349743150685,32.68349743150685 0 0,0 0.4962521453721514,0.2650807097576617 l -5.593285591368225 10.257644394568365" fill="#ff820b" stroke="none" /><path d="M 110.36928655335952 81.73862282372117 l 2.5892144034994042 -4.559872134813117 a26.24370719178082,26.24370719178082 0 0,0 0.3909103505624859,0.22644050656302586 l -2.6673214865272183 4.514627470860042" fill="#ff2603" stroke="none" /><line stroke="#e1ed5e" stroke-width="0.3" x1="143.23703022742887" x2="145.7803849466894" y1="26.81831364943548" y2="22.513508569990506" /><path d="M 143.74570117128098 25.957352633546492 a86.0,86.0 0 0,1 28.547481713284135,27.462654790039103" fill="none" id="id86" stroke="none" /><text fill="#e1ed5e" style="font-size:6.75px; font-family:Arial;" text-anchor="middle"><textPath startOffset="19.985693538727396" xlink:href="#id86">February</textPath></text><path d="M 111.90073688211348 82.69761687909136 l 5.110795907592566 -7.430543984116245 a30.018493150684932,30.018493150684932 0 0,0 0.4232162408828223,0.29649002270662084 l -5.237943288059039 7.341469118645688" fill="#ff5c08" stroke="none" /><path d="M 113.89432698308785 84.25364557470407 l 1.7784262705236589 -2.0154794405665615 a23.68792808219178,23.68792808219178 0 0,0 0.30341868479647527,0.27241229105004333 l -1.8128559429161242 1.9845681407472207" fill="#ff0000" stroke="none" /><path d="M 114.68862486808459 84.99185889309783 l 7.886018355440191 -8.057560003947502 a32.27446489726027,32.27446489726027 0 0,0 0.3936934512111674,0.3920028064162998 l -8.023547606818681 7.920621346881084" fill="#ff7c0b" stroke="none" /><path d="M 115.9244219780498 86.31012108654704 l 8.550003491189862 -7.350251875096549 a32.275139126712325,32.275139126712325 0 0,0 0.35854511459469796,0.4244043247293839 l -8.675259219271677 7.2019886007380585" fill="#ff7c0b" stroke="none" /><path d="M 116.38621287248628 86.86637796730983 l 14.457711342534104 -11.587919533830005 a39.528499571917806,39.528499571917806 0 0,0 0.4209708395001265,0.5345902159070821 l -14.655036262628194 11.337336923969884" fill="#ffdd14" stroke="none" /><path d="M 116.60985879189232 87.15038557335679 l 4.5988191010814035 -3.5577094909213036 a26.814330051369865,26.814330051369865 0 0,0 0.27928281566696056,0.36750344825404546 l -4.659377856972478 3.4780212667862243" fill="#ff2e04" stroke="none" /><path d="M 117.2510076193507 88.02491185347247 l 34.691805861910865 -24.081922767954786 a63.23103595890411,63.23103595890411 0 0,0 0.6129662824596875,0.8994523834430403 l -35.10119661003928 23.481192361241337" fill="#32ff4e" stroke="none" /><path d="M 117.45458315368197 88.32363383020206 l 5.033323449014988 -3.3670771237714616 a27.05570419520548,27.05570419520548 0 0,0 0.2556163211947368,0.38932119400736 l -5.09053640556765 3.2799378657864278" fill="#ff3204" stroke="none" /><line stroke="#e1ed5e" stroke-width="0.3" x1="172.23445277983987" x2="176.4835382374775" y1="55.19839476539836" y2="52.563006222186495" /><path d="M 173.08426987136738 54.67131705675599 a86.0,86.0 0 0,1 12.851231095245387,41.99856678651699" fill="none" id="id87" stroke="none" /><text fill="#e1ed5e" style="font-size:6.75px; font-family:Arial;" text-anchor="middle"><textPath startOffset="22.20632615414155" xlink:href="#id87">March</textPath></text><path d="M 118.21658344932153 89.55222093294921 l 11.718737490782505 -6.72106164084357 a34.50931078767123,34.50931078767123 0 0,0 0.2910981290619319,0.5178310899990625 l -11.832693261136871 6.518347040909714" fill="#ff9b0e" stroke="none" /><path d="M 118.3937258080291 89.86733742301442 l 19.710656733282896 -10.85812825164348 a43.50353167808219,43.50353167808219 0 0,0 0.35567638307236477,0.6590143199522256 l -19.894641215573724 10.517232948358796" fill="#efff19" stroke="none" /><path d="M 118.56541770881063 90.18545643968196 l 26.024169643621754 -13.757586852851643 a50.436857876712324,50.436857876712324 0 0,0 0.3991490476263558,0.7710289134239449 l -26.257128124408226 13.307585217167354" fill="#9dff22" stroke="none" /><path d="M 118.73160827565052 90.50648371742162 l 10.044383911081649 -5.090674586243475 a32.26075556506849,32.26075556506849 0 0,0 0.24677939790885092,0.49749220750126544 l -10.130523321943908 4.9170227902432595" fill="#ff7c0b" stroke="none" /><path d="M 119.196687751892 91.48605970444005 l 6.881346920479697 -3.051952377994225 a28.52777183219178,28.52777183219178 0 0,0 0.19522408760829751,0.4506041104655349 l -6.932861717930675 2.933049122942087" fill="#ff4706" stroke="none" /><path d="M 119.47837535516314 92.15188598940014 l 20.885471177587693 -8.415052897281667 a43.51701626712329,43.51701626712329 0 0,0 0.273963344781746,0.6972068298590461 l -21.02722807225114 8.054297062526837" fill="#efff19" stroke="none" /><path d="M 119.61058180528143 92.48833698450437 l 5.751583843897022 -2.2030942309466814 a27.15908604452055,27.15908604452055 0 0,0 0.16346589792937818,0.4380073363194587 l -5.788654330328025 2.1037637575978896" fill="#ff3304" stroke="none" /><path d="M 119.7369772167798 92.82701384747503 l 6.362133494963696 -2.312182608241139 a27.769263698630137,27.769263698630137 0 0,0 0.1594047231928503,0.45065861813706665 l -6.400991298966355 2.202326363677458" fill="#ff3c05" stroke="none" /><path d="M 120.08093135843002 93.85539295169968 l 32.8313771792311 -10.0461431803172 a55.334011130136986,55.334011130136986 0 0,0 0.27085762063492913,0.9131972462450436 l -32.99944069697773 9.479516547325627" fill="#67ff28" stroke="none" /><path d="M 120.28053869075195 94.5502522615342 l 6.538433519465997 -1.7569954047654344 a27.770387414383563,27.770387414383563 0 0,0 0.12007871631470515,0.46271227715171553 l -6.567708567651004 1.6441867020648684" fill="#ff3c05" stroke="none" /><path d="M 120.37134235888165 94.90015583598534 l 46.69253814580523 -11.689198677773769 a69.13346532534246,69.13346532534246 0 0,0 0.2790595363759532,1.1568819381851285 l -46.88683048244201 10.883731507929234" fill="#3aff93" stroke="none" /><path d="M 120.53481517161879 95.60439243477599 l 4.415292932502065 -0.9451214853693888 a25.515314640410956,25.515314640410956 0 0,0 0.08823524353033482,0.43026638356283914 l -4.430907471947396 0.8689794456431379" fill="#ff1b02" stroke="none" /><path d="M 120.67395015179393 96.31383870115 l 7.000468565954196 -1.2481821863828526 a28.110873287671232,28.110873287671232 0 0,0 0.08083634804206447,0.4771007020275578 l -7.020916775516484 1.127495696039457" fill="#ff4106" stroke="none" /><path d="M 120.73433829027371 96.67025291283417 l 62.20301487082114 -9.98924126149749 a84.0,84.0 0 0,0 0.21697642624280045,1.4296035504316715 l -62.36574719050324 8.917038598673738" fill="#4dd2ff" stroke="none" /><path d="M 120.87857604477298 97.74499172005257 l 11.207934229514265 -1.210522424252601 a32.27311643835616,32.27311643835616 0 0,0 0.054899451541437945,0.552829984919126 l -11.227110806737931 1.01741690862904" fill="#ff7c0b" stroke="none" /><path d="M 120.96714384426684 98.82574320788733 l 6.788067941276934 -0.3801631230543701 a27.798705051369865,27.798705051369865 0 0,0 0.02264454948620064,0.47799064972917954 l -6.79360609899663 0.2632613667021908" fill="#ff3d05" stroke="none" /><path d="M 120.98425023603335 99.18683210126433 l 7.046701668517279 -0.2730691601726006 a28.05199058219178,28.05199058219178 0 0,0 0.014544697361251012,0.4826676962618415 l -7.050358060334175 0.15173131648576005" fill="#ff4006" stroke="none" /><line stroke="#e1ed5e" stroke-width="0.3" x1="184.98032266829074" x2="189.97916517819016" y1="98.17113171792111" y2="98.06355123074" /><path d="M 185.9800911702706 98.14961562048488 a86.0,86.0 0 0,1 -9.607161424134198,41.387399972396054" fill="none" id="id88" stroke="none" /><text fill="#e1ed5e" style="font-size:6.75px; font-family:Arial;" text-anchor="middle"><textPath startOffset="21.466115282336823" xlink:href="#id88">April</textPath></text><path d="M 120.99980553446 99.90962569577887 l 29.36466814140136 -0.1263731441516787 a50.364940068493155,50.364940068493155 0 0,0 -0.0037310892275511,0.8669737364571304 l -29.362492754884304 -0.3791100705091364" fill="#9eff22" stroke="none" /><path d="M 120.9764740272857 100.99374915477107 l 22.48864792548558 1.0653875784283617 a43.513869863013696,43.513869863013696 0 0,0 -0.0418844808065082,0.7478755412029181 l -22.46697709379154 -1.4523348359667032" fill="#efff19" stroke="none" /><line stroke="#e1ed5e" stroke-width="0.3" x1="174.80103733775053" x2="179.2010983576182" y1="140.37084112569926" y2="142.7455964860345" /><path d="M 175.68104954172406 140.8457921977663 a86.0,86.0 0 0,1 -30.038265399797805,32.042727171017184" fill="none" id="id89" stroke="none" /><text fill="#e1ed5e" style="font-size:6.75px; font-family:Arial;" text-anchor="middle"><textPath startOffset="22.206326154141568" xlink:href="#id89">May</textPath></text><line stroke="#e1ed5e" stroke-width="0.3" x1="143.8653032363475" x2="146.44561519142675" y1="172.8068346515853" y2="177.08958963109032" /><path d="M 144.38136562736335 173.6633856474863 a86.0,86.0 0 0,1 -40.68145358897372,12.25698825130547" fill="none" id="id90" stroke="none" /><text fill="#e1ed5e" style="font-size:6.75px; font-family:Arial;" text-anchor="middle"><textPath startOffset="21.466115282336833" xlink:href="#id90">June</textPath></text><line stroke="#e1ed5e" stroke-width="0.3" x1="102.19456741930631" x2="102.32365962044197" y1="184.97166512339345" y2="189.96999836594603" /><path d="M 102.22038585953345 185.97133177190398 a86.0,86.0 0 0,1 -42.740103519485714,-10.115201625700543" fill="none" id="id91" stroke="none" /><text fill="#e1ed5e" style="font-size:6.75px; font-family:Arial;" text-anchor="middle"><textPath startOffset="22.20632615414155" xlink:href="#id91">July</textPath></text><line stroke="#e1ed5e" stroke-width="0.3" x1="58.666819895761336" x2="56.23545636021788" y1="174.27360380694188" y2="178.64263932499728" /><path d="M 58.180547188652646 175.14741091055294 a86.0,86.0 0 0,1 -31.652253787137756,-30.449443065178592" fill="none" id="id92" stroke="none" /><text fill="#e1ed5e" style="font-size:6.75px; font-family:Arial;" text-anchor="middle"><textPath startOffset="22.20632615414155" xlink:href="#id92">August</textPath></text><line stroke="#e1ed5e" stroke-width="0.3" x1="26.63291911575756" x2="22.317208475507996" y1="142.92168965132927" y2="145.44649492493687" /><path d="M 25.769776987707644 143.4266507060508 a86.0,86.0 0 0,1 -11.730757126820373,-40.83630448921669" fill="none" id="id93" stroke="none" /><text fill="#e1ed5e" style="font-size:6.75px; font-family:Arial;" text-anchor="middle"><textPath startOffset="21.46611528233685" xlink:href="#id93">September</textPath></text><line stroke="#e1ed5e" stroke-width="0.3" x1="15.007084014347285" x2="10.007500721073583" y1="101.09737516637583" y2="101.16192664675087" /><path d="M 14.007167355692545 101.11028546245083 a86.0,86.0 0 0,1 10.666146001902534,-42.60595125391555" fill="none" id="id94" stroke="none" /><text fill="#e1ed5e" style="font-size:6.75px; font-family:Arial;" text-anchor="middle"><textPath startOffset="22.20632615414155" xlink:href="#id94">October</textPath></text><line stroke="#e1ed5e" stroke-width="0.3" x1="26.266209847984243" x2="21.928928074336255" y1="57.711370442889674" y2="55.22380399835377" /><path d="M 25.398753493254645 57.213857153982495 a86.0,86.0 0 0,1 29.58750427330803,-30.492523968695096" fill="none" id="id95" stroke="none" /><text fill="#e1ed5e" style="font-size:6.75px; font-family:Arial;" text-anchor="middle"><textPath startOffset="21.46611528233685" xlink:href="#id95">November</textPath></text><line stroke="#e1ed5e" stroke-width="0.3" x1="56.762969772571076" x2="54.21961505331055" y1="26.818313649435495" y2="22.513508569990535" /><path d="M 56.25429882871897 25.957352633546506 a86.0,86.0 0 0,1 42.265352541879196,-11.944610805530505" fill="none" id="id96" stroke="none" /><text fill="#e1ed5e" style="font-size:6.75px; font-family:Arial;" text-anchor="middle"><textPath startOffset="22.20632615414155" xlink:href="#id96">December</textPath></text></svg>