<?xml version="1.0" encoding="utf-8" ?>
<svg baseProfile="full" height="200mm" version="1.1" viewBox="0,0,200,200" width="200mm" xmlns="http://www.w3.org/2000/svg" xmlns:ev="http://www.w3.org/2001/xml-events" xmlns:xlink="http://www.w3.org/1999/xlink"><defs /><rect fill="#1a1a1a" height="200" width="200" x="0" y="0" /><text alignment-baseline="middle" fill="#e1ed5e" style="dominant-baseline: central; font-size:9.0px; font-family:Arial;" text-anchor="middle" x="100.0" y="100.0">2022</text><line stroke="#e1ed5e" stroke-width="0.3" x1="100.0" x2="100.0" y1="15.0" y2="10.0" /><path d="M 100.0 14.0 a86.0,86.0 0 0,1 42.46469731375804,11.215312516191453" fill="none" id="id73" stroke="none" /><text fill="#e1ed5e" style="font-size:6.75px; font-family:Arial;" text-anchor="middle"><textPath startOffset="22.20632615414155" xlink:href="#id73">January</textPath></text><path d="M 100.0 79.0 l 0.0 -60.327167832664685 a81.32716783266468,81.32716783266468 0 0,0 1.3999135050489993,0.012049497506423533 l -1.038433025776471 60.31822971176682" fill="#49ecff" stroke="none" /><path d="M 101.44485096284872 79.0497635885617 l 1.8510457004539764 -26.840031276601394 a47.90378503322739,47.90378503322739 0 0,0 0.8221425758406,0.0638140869754616 l -2.3127784656569177 26.80419192743747" fill="#c7ff1e" stroke="none" /><path d="M 102.52436894288641 79.15227682838746 l 1.425977120986022 -11.776557603096519 a32.86257643720899,32.86257643720899 0 0,0 0.5609880779059297,0.07283235297783033 l -1.6284799273997979 11.750266926954552" fill="#ff6f0a" stroke="none" /><path d="M 102.88285421437855 79.19881850522331 l 0.7785390038546312 -5.6175338451631625 a26.67122645307667,26.67122645307667 0 0,0 0.4542122814110484,0.06693908325090554 l -0.8751202656943353 5.603300277751289" fill="#ff1302" stroke="none" /><path d="M 103.59715602781102 79.31037775812273 l 3.0799395103625926 -17.71476814032212 a38.98051828098579,38.98051828098579 0 0,0 0.6600791658407672,0.12062524843755232 l -3.384413797306261 17.65912741053383" fill="#ffc412" stroke="none" /><path d="M 103.95276090670814 79.375362276772 l 3.5536485292170346 -18.542157049367752 a39.879618796803726,39.879618796803726 0 0,0 0.6730798323444507,0.1350134823619879 l -3.8722947710286104 18.478239610928554" fill="#ffd013" stroke="none" /><path d="M 104.307194497241 79.44645832069477 l 4.905000557074729 -23.406218003721087 a44.91464136679914,44.91464136679914 0 0,0 0.7553301138438118,0.16508590720865396 l -5.307173395072069 23.318318598416564" fill="#ecff1a" stroke="none" /><path d="M 104.66035177308747 79.52364482259891 l 4.645341237869759 -20.410402849017686 a41.93236106308704,41.93236106308704 0 0,0 0.7024195891299523,0.16624002248033654 l -4.9959845139622345 20.32741691439648" fill="#ffec16" stroke="none" /><path d="M 107.76421540070413 80.48803036053334 l 2.019672042932109 -5.07556495403219 a26.462639907920103,26.462639907920103 0 0,0 0.4217844014502346,0.17205644772716475 l -2.106740313970731 5.040047620121446" fill="#ff1001" stroke="none" /><path d="M 110.05341064243156 81.56283822128135 l 2.14286347122939 -3.9298425075778307 a25.476106119239677,25.476106119239677 0 0,0 0.38320420130058735,0.21325272313739116 l -2.210191761602012 3.89237438688026" fill="#ff0100" stroke="none" /><line stroke="#e1ed5e" stroke-width="0.3" x1="143.23703022742887" x2="145.7803849466894" y1="26.81831364943548" y2="22.513508569990506" /><path d="M 143.74570117128098 25.957352633546492 a86.0,86.0 0 0,1 28.547481713284135,27.462654790039103" fill="none" id="id74" stroke="none" /><text fill="#e1ed5e" style="font-size:6.75px; font-family:Arial;" text-anchor="middle"><textPath startOffset="19.985693538727396" xlink:href="#id74">February</textPath></text><path d="M 111.2981086023043 82.29822771554956 l 8.02803019109742 -12.578243610307988 a35.921845766172005,35.921845766172005 0 0,0 0.5183573219924508,0.3371540212708574 l -8.24335453887415 12.438190664877602" fill="#ff9a0e" stroke="none" /><line stroke="#e1ed5e" stroke-width="0.3" x1="172.23445277983987" x2="176.4835382374775" y1="55.19839476539836" y2="52.563006222186495" /><path d="M 173.08426987136738 54.67131705675599 a86.0,86.0 0 0,1 12.851231095245387,41.99856678651699" fill="none" id="id75" stroke="none" /><text fill="#e1ed5e" style="font-size:6.75px; font-family:Arial;" text-anchor="middle"><textPath startOffset="22.20632615414155" xlink:href="#id75">March</textPath></text><path d="M 118.56541770881063 90.18545643968196 l 22.499470181274585 -11.894266729770392 a46.449945765698345,46.449945765698345 0 0,0 0.3675972769753934,0.7100809352531792 l -22.700876891410097 11.505213072256868" fill="#d9ff1c" stroke="none" /><path d="M 118.89224826269711 90.83032412892265 l 5.654761734817267 -2.744635340137265 a27.285646619710974,27.285646619710974 0 0,0 0.2014483778150271,0.4243016594199367 l -5.701168306474051 2.646891265076788" fill="#ff1d02" stroke="none" /><path d="M 119.04729006885535 91.15688171328212 l 16.0360244883201 -7.445072810162816 a38.6800223568475,38.6800223568475 0 0,0 0.2751764628532836,0.6063148598748171 l -16.16180326813673 7.167935941445935" fill="#ffc011" stroke="none" /><path d="M 119.196687751892 91.48605970444005 l 13.659844390615962 -6.05828990352158 a35.94303266846974,35.94303266846974 0 0,0 0.24596893861367253,0.5677302229658616 l -13.762104039072316 5.822260535969115" fill="#ff9b0e" stroke="none" /><path d="M 119.34039704204932 91.81776055985345 l 13.792059892979557 -5.834933800575327 a35.975559039602885,35.975559039602885 0 0,0 0.23637366426716278,0.5723975770138032 l -13.890455244132918 5.596661653108221" fill="#ff9b0e" stroke="none" /><path d="M 119.47837535516314 92.15188598940014 l 13.868866014103174 -5.5879630457764975 a35.952283287782834,35.952283287782834 0 0,0 0.22633922605358267,0.5760086423068188 l -13.962998790038458 5.348405398573894" fill="#ff9b0e" stroke="none" /><path d="M 119.85752413597 93.16781622104841 l 20.9188695367131 -7.197350492645102 a43.122408476655565,43.122408476655565 0 0,0 0.23545390738154712,0.7039772139318253 l -21.039660737866416 6.836200175790962" fill="#fffb17" stroke="none" /><path d="M 120.67395015179393 96.31383870115 l 15.531828826009901 -2.769322064648222 a36.776782034946784,36.776782034946784 0 0,0 0.10575625744604479,0.6241794179650387 l -15.57719694497617 2.5015568583673455" fill="#ffa60f" stroke="none" /><path d="M 120.78858239683441 97.02765380044208 l 6.11070356043572 -0.873706833769094 a27.17284874550613,27.17284874550613 0 0,0 0.06221806117524721,0.4635968237793353 l -6.124837620668804 0.7683916679250943" fill="#ff1b02" stroke="none" /><path d="M 120.83666639777658 97.38593545837742 l 41.48966070151106 -5.205086495762338 a62.81488814471323,62.81488814471323 0 0,0 0.12535951372685616,1.0740037578468218 l -41.57311056824151 4.4901389995906635" fill="#31ff41" stroke="none" /><path d="M 120.91429891909075 98.10471618934814 l 21.290936792586926 -1.9294152757742278 a42.37818123256332,42.37818123256332 0 0,0 0.0595827464610682,0.7270604243875947 l -21.320994022867488 1.5626409341788643" fill="#fff116" stroke="none" /><path d="M 120.94382443527127 98.46500227214037 l 9.596396648111584 -0.7033312896609131 a30.622136120992227,30.622136120992227 0 0,0 0.03400429126304185,0.5260313351836984 l -9.607081530379041 0.5380408902241794" fill="#ff4f07" stroke="none" /><path d="M 120.96714384426684 98.82574320788733 l 17.877007473586705 -1.0011948982859735 a38.90502129110794,38.90502129110794 0 0,0 0.03169164456618349,0.6689605278483238 l -17.891592726386385 0.6933232638146499" fill="#ffc312" stroke="none" /><line stroke="#e1ed5e" stroke-width="0.3" x1="184.98032266829074" x2="189.97916517819016" y1="98.17113171792111" y2="98.06355123074" /><path d="M 185.9800911702706 98.14961562048488 a86.0,86.0 0 0,1 -9.607161424134198,41.387399972396054" fill="none" id="id76" stroke="none" /><text fill="#e1ed5e" style="font-size:6.75px; font-family:Arial;" text-anchor="middle"><textPath startOffset="21.466115282336823" xlink:href="#id76">April</textPath></text><path d="M 120.99980553446 99.90962569577887 l 62.933469250585404 -0.27083910307695114 a83.93405203650988,83.93405203650988 0 0,0 -0.006217925345533027,1.4448268698646207 l -62.92880702795036 -0.8124972449913543" fill="#4dd3ff" stroke="none" /><path d="M 120.9764740272857 100.99374915477107 l 14.947157316026388 0.7081135242133628 a35.96392116369286,35.96392116369286 0 0,0 -0.03461724205292602,0.618114111402848 l -14.932753723085934 -0.9652993519516342" fill="#ff9b0e" stroke="none" /><path d="M 120.92983693683757 101.71520430193887 l 14.903515880587923 1.221346092162202 a35.9534769160813,35.9534769160813 0 0,0 -0.05585698569666689,0.6163771826751719 l -14.880284298614182 -1.4777046633859445" fill="#ff9b0e" stroke="none" /><path d="M 120.8583938346157 102.4346265915055 l 29.90031455946162 3.490014691353429 a51.10330568725992,51.10330568725992 0 0,0 -0.1095034108773171,0.8728499260592444 l -29.835809639337455 -4.004182371700068" fill="#a1ff22" stroke="none" /><path d="M 120.70491114924044 103.5080841355445 l 29.45993233668742 4.991468957273882 a50.879798788372554,50.879798788372554 0 0,0 -0.15373829743754638,0.8622460169165956 l -29.369647596910685 -5.497833724923695" fill="#a3ff21" stroke="none" /><path d="M 120.49622156327973 104.57218783832717 l 20.412147843120206 4.553433121041861 a41.91385982446086,41.91385982446086 0 0,0 -0.163143580081789,0.702818273128164 l -20.330743697107867 -4.90412005151859" fill="#ffeb16" stroke="none" /><path d="M 120.32669344350535 105.2749913415812 l 44.98877123564302 11.675060648500114 a67.47899072096098,67.47899072096098 0 0,0 -0.3014444726689864,1.121787022897644 l -44.78113868663226 -12.447738604573306" fill="#37ff7a" stroke="none" /><path d="M 120.23288151984713 105.62410040840565 l 14.412409722979946 4.006193548339112 a35.958848243424384,35.958848243424384 0 0,0 -0.17090275351376685,0.5949349053163331 l -14.34131433258008 -4.253685929160026" fill="#ff9b0e" stroke="none" /><path d="M 120.13307415673323 105.97154293290107 l 25.81058943467938 7.6555145892175895 a47.92198786477897,47.92198786477897 0 0,0 -0.24137444401807687,0.7888256488829394 l -25.67498821815517 -8.098667210652586" fill="#c7ff1e" stroke="none" /><path d="M 119.79798401119884 107.00284435728193 l 11.269662063526805 3.986248768834317 a32.953889002041485,32.953889002041485 0 0,0 -0.19376218082280017,0.533150304079001 l -11.19937562169878 -4.179646869919449" fill="#ff700a" stroke="none" /><path d="M 119.67450827220406 107.3425965602758 l 45.013611659654465 16.799240192687297 a69.04622467684408,69.04622467684408 0 0,0 -0.4251462772946626,1.1099227738117328 l -44.71777110276629 -17.571586533332173" fill="#39ff8d" stroke="none" /><path d="M 119.41010516605496 108.01547362559984 l 16.59881592544115 6.854541494151085 a38.958436157464206,38.958436157464206 0 0,0 -0.2612979765267099,0.6176312303346789 l -16.478366967722135 -7.139247250151928" fill="#ffc412" stroke="none" /><line stroke="#e1ed5e" stroke-width="0.3" x1="174.80103733775053" x2="179.2010983576182" y1="140.37084112569926" y2="142.7455964860345" /><path d="M 175.68104954172406 140.8457921977663 a86.0,86.0 0 0,1 -30.038265399797805,32.042727171017184" fill="none" id="id77" stroke="none" /><text fill="#e1ed5e" style="font-size:6.75px; font-family:Arial;" text-anchor="middle"><textPath startOffset="22.206326154141568" xlink:href="#id77">May</textPath></text><path d="M 117.35343817320211 111.8261652097733 l 12.348484377197556 8.415347718272704 a35.94333107554436,35.94333107554436 0 0,0 -0.35282503149922445,0.5082707728089395 l -12.201798438536194 -8.626659753268662" fill="#ff9b0e" stroke="none" /><path d="M 116.93607887273984 112.41649034213515 l 15.31844713326912 11.230542341940208 a39.99420711345627,39.99420711345627 0 0,0 -0.411823651702282,0.5517050807145342 l -15.122862214871745 -11.492560302164057" fill="#ffd213" stroke="none" /><path d="M 116.71984013943494 112.70617746262583 l 11.898336889976386 9.042094827065542 a35.94422629676821,35.94422629676821 0 0,0 -0.3786008484388648,0.489392632515197 l -11.740929224319453 -9.245565453693992" fill="#ff9b0e" stroke="none" /><path d="M 116.27256486870786 113.27417163493432 l 7.668772133573106 6.255719264392411 a30.896670629638926,30.896670629638926 0 0,0 -0.3397221351597763,0.4092171965856029 l -7.559953998519787 -6.386797718091785" fill="#ff5307" stroke="none" /><path d="M 115.80600337817218 113.82643327865902 l 22.470666868421315 19.656403250695096 a50.85473259410481,50.85473259410481 0 0,0 -0.5820230920234902,0.6539091138728271 l -22.128984926749485 -20.040286534308787" fill="#a4ff21" stroke="none" /><path d="M 115.32070863581623 114.36230785411682 l 5.121077901871043 4.800724243240467 a28.019429616191665,28.019429616191665 0 0,0 -0.3328887677780017,0.3490325421434797 l -5.037682582714077 -4.888163901966453" fill="#ff2803" stroke="none" /><path d="M 115.07121518719521 114.62390073753431 l 12.137510537572597 11.777268594309765 a37.91222095386058,37.91222095386058 0 0,0 -0.4584839969618505,0.4644418683183842 l -11.93298591555521 -11.984450956608814" fill="#ffb610" stroke="none" /><path d="M 114.81725581225074 114.88116024355365 l 10.554718146640795 10.600238941399967 a35.958848243424384,35.958848243424384 0 0,0 -0.4423795312476323,0.43296147987489086 l -10.370688663017368 -10.78035052419743" fill="#ff9b0e" stroke="none" /><path d="M 114.55890576462653 115.13401014063108 l 5.536523170214263 5.755226330638385 a28.985970130872815,28.985970130872815 0 0,0 -0.3625512218475562,0.34281480956314747 l -5.436636113975899 -5.849675776947454" fill="#ff3605" stroke="none" /><path d="M 114.29624159901734 115.38237550388516 l 13.452637325446458 14.474679755819352 a40.760814888144715,40.760814888144715 0 0,0 -0.5180514217973136,0.47322769093118966 l -13.201486354182281 -14.704100213337124" fill="#ffdc14" stroke="none" /><path d="M 113.20401910651253 116.32954008644616 l 9.398062433762242 11.622676096503927 a35.94691196043975,35.94691196043975 0 0,0 -0.4845001947786432,0.38491625695935283 l -9.196604746266248 -11.782726267468405" fill="#ff9b0e" stroke="none" /><path d="M 112.63410532772338 116.77436683061366 l 9.007681860826622 11.959545682701528 a35.9722765617821,35.9722765617821 0 0,0 -0.49781353414828056,0.36827055152213045 l -8.800483356259777 -12.112826182963428" fill="#ff9b0e" stroke="none" /><path d="M 112.04921762599082 117.19931262002967 l 15.424831732151993 22.017736861219678 a47.883194945078884,47.883194945078884 0 0,0 -0.6791276169834334,0.4671101675774369 l -15.043547230545677 -22.27998781816221" fill="#c7ff1e" stroke="none" /><path d="M 111.1453310114006 117.79835938074945 l 6.016454731534489 9.60788184759391 a32.33618635758641,32.33618635758641 0 0,0 -0.4742960949048443,0.2913513998877242 l -5.850179436697336 -9.710021714310013" fill="#ff6809" stroke="none" /><line stroke="#e1ed5e" stroke-width="0.3" x1="143.8653032363475" x2="146.44561519142675" y1="172.8068346515853" y2="177.08958963109032" /><path d="M 144.38136562736335 173.6633856474863 a86.0,86.0 0 0,1 -40.68145358897372,12.25698825130547" fill="none" id="id78" stroke="none" /><text fill="#e1ed5e" style="font-size:6.75px; font-family:Arial;" text-anchor="middle"><textPath startOffset="21.466115282336833" xlink:href="#id78">June</textPath></text><path d="M 110.8373102113329 117.98757091392108 l 11.443492430466156 18.993701165873716 a43.17462971471336,43.17462971471336 0 0,0 -0.6398729487462627,0.37804821679191425 l -11.114851610691511 -19.18786795495938" fill="#fffc17" stroke="none" /><path d="M 110.5260780823613 118.17145234162733 l 14.821447462724166 25.58666429181645 a50.56945543077193,50.56945543077193 0 0,0 -0.7569795557517439,0.42983274770868685 l -14.378819140051224 -25.838000205319766" fill="#a7ff21" stroke="none" /><path d="M 110.21172684928248 118.3499491758327 l 6.581337781403186 11.826326299182345 a34.534252869207705,34.534252869207705 0 0,0 -0.5219230509450568,0.28459406159563627 l -6.376791918589481 -11.937861012537752" fill="#ff870c" stroke="none" /><path d="M 109.89434966115114 118.52300852407294 l 5.129974792935165 9.603720312302173 a31.88797893151321,31.88797893151321 0 0,0 -0.48638141675271995,0.2544517694396332 l -4.96390247365595 -9.690601500686522" fill="#ff6109" stroke="none" /><path d="M 109.57404056367764 118.69057910512821 l 22.682233121941735 44.28058034921918 a70.75191951534902,70.75191951534902 0 0,0 -1.088724110253756,0.5459088704230136 l -21.91665510400522 -44.66445706055149" fill="#3cffa1" stroke="none" /><path d="M 108.92500713936063 119.00905698771935 l 6.177173129203227 13.15654253296706 a35.534513383320466,35.534513383320466 0 0,0 -0.5559154714881775,0.25519352702817155 l -5.949789661947629 -13.260923130329306" fill="#ff950d" stroke="none" /><path d="M 108.59647513512805 119.15986991738527 l 6.500463113321351 14.488267074146918 a36.879732475689295,36.879732475689295 0 0,0 -0.5814341403263685,0.25488364034477035 l -6.250108298337229 -14.598015267786144" fill="#ffa80f" stroke="none" /><path d="M 108.2653958097858 119.30500536409082 l 13.532955528691357 31.60813893075492 a55.38335835847689,55.38335835847689 0 0,0 -0.8796157467348517,0.36767945347411735 l -12.986868322459044 -31.836403427249007" fill="#70ff27" stroke="none" /><path d="M 107.59598834532513 119.57807347666477 l 11.301101923857045 29.12771765490125 a52.24322071229295,52.24322071229295 0 0,0 -0.8411899374390407,0.3180660565777219 l -10.798041765657729 -29.317931961585604" fill="#93ff23" stroke="none" /><path d="M 107.2578585660854 119.70592522655815 l 5.190588768135509 14.093048688583014 a36.01852965834758,36.01852965834758 0 0,0 -0.5836381475054021,0.2092718748447673 l -4.947231060000372 -14.180308104467741" fill="#ff9c0e" stroke="none" /><path d="M 106.57524785965236 119.94407469862006 l 6.821008730719274 20.689517802085902 a42.7849100752649,42.7849100752649 0 0,0 -0.7014252995770129,0.2245742306436614 l -6.4638620860513205 -20.80386487938927" fill="#fff717" stroke="none" /><path d="M 106.2309692047433 120.05430185196036 l 6.4409299141116 20.73005795095025 a42.707622642939356,42.707622642939356 0 0,0 -0.7039131894706533,0.21208326969956606 l -6.083141750200701 -20.837856589755543" fill="#fff617" stroke="none" /><path d="M 105.88484417918355 120.15858648285463 l 9.708776183680005 33.257499838941484 a55.64565817706434,55.64565817706434 0 0,0 -0.9217804814336079,0.2605043714695 l -9.13486453414179 -33.41969300374951" fill="#6dff28" stroke="none" /><path d="M 105.53697534728816 120.25689768951611 l 5.9027045794248645 21.594909721859192 a43.38709555183995,43.38709555183995 0 0,0 -0.7221049787628014,0.1907144880012771 l -5.530109157850566 -21.693315559164056" fill="#fffe18" stroke="none" /><path d="M 105.18746579009965 120.34920634021253 l 8.092968521772459 31.746809139194113 a53.76211272208828,53.76211272208828 0 0,0 -0.8987149083978244,0.22088225885909804 l -7.5453003286314235 -31.881412656367242" fill="#82ff25" stroke="none" /><path d="M 104.83641907484287 120.43548508189849 l 4.600784502233633 19.43985035322438 a40.97686161016668,40.97686161016668 0 0,0 -0.6877865742238531,0.15653798505251224 l -4.265477778616918 -19.516165071854576" fill="#ffdf14" stroke="none" /><path d="M 104.13013068566511 120.58985236759428 l 3.1723525951886593 15.815061692744077 a37.1300960112921,37.1300960112921 0 0,0 -0.627732693241461,0.12030646467612777 l -2.8996522873754937 -15.867325355768674" fill="#ffab0f" stroke="none" /><path d="M 103.7750983002368 120.6578951692458 l 3.9969861977346364 21.87209849887749 a43.23431112963656,43.23431112963656 0 0,0 -0.7332354465008314,0.12748238103867518 l -3.619901779761755 -21.93765945843717" fill="#fffd17" stroke="none" /><path d="M 103.41894727170886 120.7198165907248 l 5.929574984857093 35.93495201398088 a57.4208818639548,57.4208818639548 0 0,0 -0.9766037943703226,0.15252542780920358 l -5.310135326878253 -36.03169574913719" fill="#5aff2a" stroke="none" /><path d="M 103.06178313531738 120.77559828337769 l 0.830949968521747 5.638375409564617 a26.699276718090573,26.699276718090573 0 0,0 -0.45524988708282615,0.06309348610326117 l -0.7337714902520904 -5.651843461160481" fill="#ff1402" stroke="none" /><path d="M 102.70371172650421 120.8252237178851 l 2.092818178360235 16.119842340425933 a37.2551285755562,37.2551285755562 0 0,0 -0.6366592379267625,0.0770905673580888 l -1.8150315173820921 -16.153478436509374" fill="#ffad10" stroke="none" /><path d="M 102.34483914955558 120.86867818915974 l 1.001461041000792 8.912836595886505 a29.96892303465785,29.96892303465785 0 0,0 -0.5131356113380221,0.05318860420011749 l -0.8478928330571672 -8.92875456854238" fill="#ff4506" stroke="none" /><path d="M 101.62511606390274 120.93702456842531 l 1.0109048481213054 13.023894176904056 a34.06306809838908,34.06306809838908 0 0,0 -0.5849719446858253,0.040343090212450035 l -0.78657014265655 -13.03936561163279" fill="#ff800b" stroke="none" /><path d="M 100.90346689309514 120.98055641714683 l 1.0197333564905504 23.680528174089353 a44.702473936747175,44.702473936747175 0 0,0 -0.7690520982448115,0.02648770924034448 l -0.6119609065710867 -23.69457268175579" fill="#efff19" stroke="none" /><line stroke="#e1ed5e" stroke-width="0.3" x1="102.19456741930631" x2="102.32365962044197" y1="184.97166512339345" y2="189.96999836594603" /><path d="M 102.22038585953345 185.97133177190398 a86.0,86.0 0 0,1 -42.740103519485714,-10.115201625700543" fill="none" id="id79" stroke="none" /><text fill="#e1ed5e" style="font-size:6.75px; font-family:Arial;" text-anchor="middle"><textPath startOffset="22.20632615414155" xlink:href="#id79">July</textPath></text><path d="M 100.54218724476979 120.99299961872073 l 0.11409453689300292 4.417637250964642 a25.419110367988026,25.419110367988026 0 0,0 -0.43749957781229004,0.007531951990873988 l -0.0380352691880449 -4.418946680234676" fill="#ff0000" stroke="none" /><path d="M 99.81925306533755 120.99922214144158 l -0.05134209136801655 5.964936466870902 a26.965157421573412,26.965157421573412 0 0,0 -0.46410927907364385,-0.007990062129846527 l 0.15401106033432832 -5.963168927461896" fill="#ff1802" stroke="none" /><path d="M 99.09653310690486 120.98055641714683 l -1.2597808737971061 29.254977573549535 a50.28208941791674,50.28208941791674 0 0,0 -0.8644016297603709,-0.04467969071136046 l 1.763170571970966 -29.228958076075973" fill="#aaff21" stroke="none" /><path d="M 98.73552117531835 120.96189622390904 l -0.9382026681015002 15.553053623250321 a36.58132540107332,36.58132540107332 0 0,0 -0.6282184856995563,-0.04332562488157915 l 1.2057839145799867 -15.534599653852457" fill="#ffa40f" stroke="none" /><path d="M 98.01472825383883 120.90594882070398 l -1.976789808717543 20.81662958748571 a41.910278939565465,41.910278939565465 0 0,0 -0.717598579706421,-0.07438202687013501 l 2.3348209850295576 -20.779518192159813" fill="#ffeb16" stroke="none" /><path d="M 97.65516085044442 120.86867818915974 l -1.9103595729551273 17.001882266055265 a38.10887121603251,38.10887121603251 0 0,0 -0.6512489913285867,-0.07885718331268926 l 2.202735987335103 -16.966479554017226" fill="#ffb911" stroke="none" /><path d="M 96.58105272829116 120.7198165907248 l -4.4401731748697415 26.90874310219309 a48.27261617745274,48.27261617745274 0 0,0 -0.8186829476826073,-0.14233852439132127 l 4.902705094024399 -26.82832599928076" fill="#c2ff1e" stroke="none" /><path d="M 96.22490169976321 120.6578951692458 l -3.195174995244494 17.484469237533755 a38.77402058535153,38.77402058535153 0 0,0 -0.6555253819554073,-0.12563299961530894 l 3.4956679917715965 -17.42687903956998" fill="#ffc212" stroke="none" /><path d="M 95.86986931433489 120.58985236759428 l -4.315547478114614 21.514206746078926 a42.942767417736746,42.942767417736746 0 0,0 -0.7235008467736754,-0.1516166369083968 l 4.685239786317677 -21.436734128443987" fill="#fff917" stroke="none" /><path d="M 95.51606077576429 120.51570834832081 l -5.851436511719504 26.772522750598817 a48.40451210443301,48.40451210443301 0 0,0 -0.8124578664419961,-0.18491276526647696 l 6.311414527554363 -26.667833251754654" fill="#c1ff1e" stroke="none" /><path d="M 95.16358092515715 120.4354850818985 l -14.509257224528554 61.30645524569551 a84.0,84.0 0 0,0 -1.4041868610271577,-0.3451149667438802 l 15.562397370298923 -61.0476190206376" fill="#4dd2ff" stroke="none" /><path d="M 94.11515582081647 120.15858648285463 l -6.1796424798691385 21.1684207041906 a43.05198440704619,43.05198440704619 0 0,0 -0.7095890096803333,-0.21379334776927952 l 6.543106463989718 -21.058911987315593" fill="#fffa17" stroke="none" /><path d="M 93.76903079525671 120.05430185196036 l -5.68611614659765 18.300698626847556 a40.16370233183814,40.16370233183814 0 0,0 -0.6584526388082427,-0.2108157416974011 l 6.000290130496833 -18.200110038490447" fill="#ffd413" stroke="none" /><path d="M 93.08242187328487 119.8279376855182 l -3.5656551783356147 10.22028047808347 a31.824418224620004,31.824418224620004 0 0,0 -0.5156774769608109,-0.18490359631231748 l 3.7410522159261523 -10.157389340731195" fill="#ff6008" stroke="none" /><path d="M 92.7421414339146 119.70592522655815 l -9.647797641375199 26.194886162468478 a48.91508660910095,48.91508660910095 0 0,0 -0.7876022588869974,-0.2978037818647214 l 10.09727012102248 -26.024934130497122" fill="#bbff1f" stroke="none" /><path d="M 92.40401165467489 119.57807347666478 l -10.40910281880684 26.828658832550698 a49.77718464766651,49.77718464766651 0 0,0 -0.796147962720189,-0.31680370498773935 l 10.869371857568888 -26.64550828315689" fill="#b0ff20" stroke="none" /><path d="M 91.7346041902142 119.30500536409082 l -9.141260527443102 21.35071175997489 a44.22532102443623,44.22532102443623 0 0,0 -0.6972423546578603,-0.30565055821799075 l 9.507423556758704 -21.190196648462447" fill="#f5ff19" stroke="none" /><path d="M 91.40352486487194 119.15986991738527 l -5.632309559880128 12.55332177496507 a34.75895339639354,34.75895339639354 0 0,0 -0.5437823154449539,-0.24962379018245168 l 5.847559871092502 -12.454510914448543" fill="#ff8a0c" stroke="none" /><path d="M 91.07499286063937 119.00905698771935 l -3.81280992375564 8.120768980046439 a29.97131029125478,29.97131029125478 0 0,0 -0.46510811177875755,-0.22328015822721267 l 3.9520307035346396 -8.053934545319663" fill="#ff4506" stroke="none" /><line stroke="#e1ed5e" stroke-width="0.3" x1="58.666819895761336" x2="56.23545636021788" y1="174.27360380694188" y2="178.64263932499728" /><path d="M 58.180547188652646 175.14741091055294 a86.0,86.0 0 0,1 -31.652253787137756,-30.449443065178592" fill="none" id="id80" stroke="none" /><text fill="#e1ed5e" style="font-size:6.75px; font-family:Arial;" text-anchor="middle"><textPath startOffset="22.20632615414155" xlink:href="#id80">August</textPath></text><path d="M 89.4739219176387 118.17145234162733 l -6.346130051654144 10.955495378724493 a33.66081536180674,33.66081536180674 0 0,0 -0.4988727251416977,-0.294742799356453 l 6.533770647824223 -10.84463400707429" fill="#ff7b0b" stroke="none" /><path d="M 89.1626897886671 117.98757091392108 l -13.1945885470969 21.900138737629213 a46.567816560171664,46.567816560171664 0 0,0 -0.6830407673461695,-0.4195794270383297 l 13.569608514375378 -21.669770843762507" fill="#d7ff1c" stroke="none" /><path d="M 88.8546689885994 117.79835938074946 l -5.737875567229839 9.16300927474604 a31.811288313336902,31.811288313336902 0 0,0 -0.46159421187646593,-0.29461126559380807 l 5.894751581153229 -9.062883580328426" fill="#ff6008" stroke="none" /><path d="M 88.54995079064634 117.60387380957326 l -8.158284123162714 12.542950827624287 a35.96272753539439,35.96272753539439 0 0,0 -0.5160228432731137,-0.3419918026558092 l 8.37298166517579 -12.400661003877158" fill="#ff9b0e" stroke="none" /><path d="M 88.24862548938628 117.40417183066458 l -8.813155165822023 13.052572423569638 a36.749328584082114,36.749328584082114 0 0,0 -0.5212159292142898,-0.3584970688141708 l 9.036527979659203 -12.898934565390366" fill="#ffa60f" stroke="none" /><path d="M 87.95078237400918 117.19931262002967 l -5.116498647469704 7.3034003110682555 a29.917298610749288,29.917298610749288 0 0,0 -0.41923063836799884,-0.29910992921175145 l 5.24145661368659 -7.214246120012285" fill="#ff4406" stroke="none" /><path d="M 87.36589467227662 116.77436683061367 l -21.64543760904341 28.738759195439037 a56.978344172299295,56.978344172299295 0 0,0 -0.7783547638592013,-0.5968092421774178 l 22.136921101396094 -28.36191061143425" fill="#5eff29" stroke="none" /><path d="M 87.07902340077011 116.55440617244103 l -28.493519414807906 36.506009437644074 a67.3094955025791,67.3094955025791 0 0,0 -0.9072118271895093,-0.7207439430454392 l 29.117688734714772 -36.01013158059351" fill="#37ff78" stroke="none" /><path d="M 86.79598089348748 116.32954008644616 l -4.856919566379232 6.006600120467581 a28.72456553350922,28.72456553350922 0 0,0 -0.3818040135703853,-0.3141987100835171 l 4.959593708494306 -5.922106291526884" fill="#ff3204" stroke="none" /><path d="M 85.70375840098266 115.38237550388516 l -8.152313252143072 8.771672107051097 a32.97507590433922,32.97507590433922 0 0,0 -0.41244622849108276,-0.38999365263389124 l 8.302095315024973 -8.630043817671275" fill="#ff710a" stroke="none" /><path d="M 84.67929136418377 114.36230785411682 l -11.448459959430869 10.732291194970298 a36.69233283283046,36.69233283283046 0 0,0 -0.4279961298294319,-0.4645052686675914 l 11.63150249725603 -10.53363467150136" fill="#ffa50f" stroke="none" /><path d="M 84.43433777217949 114.09645910891817 l -20.098277253231156 18.201252173743377 a48.11505724205551,48.11505724205551 0 0,0 -0.5506680098472224,-0.6186813466548516 l 20.408604112726717 -17.85259665734766" fill="#c4ff1e" stroke="none" /><path d="M 84.19399662182784 113.82643327865904 l -5.127194051519002 4.485055757862485 a27.81203669933356,27.81203669933356 0 0,0 -0.31210070344239754,-0.3630436275355854 l 5.203637264532178 -4.396135031165369" fill="#ff2503" stroke="none" /><path d="M 83.95833913139862 113.55231037782056 l -4.938303736587746 4.171976052004841 a27.46469086448056,27.46469086448056 0 0,0 -0.30198604677600044,-0.36376164718122816 l 5.009385783257283 -4.086353147709852" fill="#ff1f03" stroke="none" /><path d="M 83.50135304334701 112.99209946851258 l -18.43499376389599 14.516903920134192 a44.46464349827824,44.46464349827824 0 0,0 -0.4683464769832421,-0.6054009552412778 l 18.682147058097296 -14.197424970779661" fill="#f2ff19" stroke="none" /><path d="M 83.28015986056508 112.70617746262583 l -19.42413000752613 14.761292026389198 a45.39656879230394,45.39656879230394 0 0,0 -0.4674522158112969,-0.6262286330285781 l 19.675343490032514 -14.424750513851311" fill="#e6ff1a" stroke="none" /><path d="M 82.85270091963577 112.12312394758628 l -15.087472478666072 10.666828522523238 a39.47736606022139,39.47736606022139 0 0,0 -0.38751563939440015,-0.5582451808297435 l 15.268849025222607 -10.40554207950648" fill="#ffcb12" stroke="none" /><line stroke="#e1ed5e" stroke-width="0.3" x1="26.63291911575756" x2="22.317208475507996" y1="142.92168965132927" y2="145.44649492493687" /><path d="M 25.769776987707644 143.4266507060508 a86.0,86.0 0 0,1 -11.730757126820373,-40.83630448921669" fill="none" id="id81" stroke="none" /><text fill="#e1ed5e" style="font-size:6.75px; font-family:Arial;" text-anchor="middle"><textPath startOffset="21.46611528233685" xlink:href="#id81">September</textPath></text><line stroke="#e1ed5e" stroke-width="0.3" x1="15.007084014347285" x2="10.007500721073583" y1="101.09737516637583" y2="101.16192664675087" /><path d="M 14.007167355692545 101.11028546245083 a86.0,86.0 0 0,1 10.666146001902534,-42.60595125391555" fill="none" id="id82" stroke="none" /><text fill="#e1ed5e" style="font-size:6.75px; font-family:Arial;" text-anchor="middle"><textPath startOffset="22.20632615414155" xlink:href="#id82">October</textPath></text><line stroke="#e1ed5e" stroke-width="0.3" x1="26.266209847984243" x2="21.928928074336255" y1="57.711370442889674" y2="55.22380399835377" /><path d="M 25.398753493254645 57.213857153982495 a86.0,86.0 0 0,1 29.58750427330803,-30.492523968695096" fill="none" id="id83" stroke="none" /><text fill="#e1ed5e" style="font-size:6.75px; font-family:Arial;" text-anchor="middle"><textPath startOffset="21.46611528233685" xlink:href="#id83">November</textPath></text><line stroke="#e1ed5e" stroke-width="0.3" x1="56.762969772571076" x2="54.21961505331055" y1="26.818313649435495" y2="22.513508569990535" /><path d="M 56.25429882871897 25.957352633546506 a86.0,86.0 0 0,1 42.265352541879196,-11.944610805530505" fill="none" id="id84" stroke="none" /><text fill="#e1ed5e" style="font-size:6.75px; font-family:Arial;" text-anchor="middle"><textPath startOffset="22.20632615414155" xlink:href="#id84">December</textPath></text></svg>