<?xml version="1.0" encoding="utf-8" ?>
<svg baseProfile="full" height="200mm" version="1.1" viewBox="0,0,200,200" width="200mm" xmlns="http://www.w3.org/2000/svg" xmlns:ev="http://www.w3.org/2001/xml-events" xmlns:xlink="http://www.w3.org/1999/xlink"><defs /><rect fill="#1a1a1a" height="200" width="200" x="0" y="0" /><text alignment-baseline="middle" fill="#e1ed5e" style="dominant-baseline: central; font-size:9.0px; font-family:Arial;" text-anchor="middle" x="100.0" y="100.0">2023</text><line stroke="#e1ed5e" stroke-width="0.3" x1="100.0" x2="100.0" y1="15.0" y2="10.0" /><path d="M 100.0 14.0 a86.0,86.0 0 0,1 42.46469731375804,11.215312516191453" fill="none" id="id85" stroke="none" /><text fill="#e1ed5e" style="font-size:6.75px; font-family:Arial;" text-anchor="middle"><textPath startOffset="22.20632615414155" xlink:href="#id85">January</textPath></text><path d="M 100.0 79.0 l 0.0 -16.832923558337058 a37.83292355833706,37.83292355833706 0 0,0 0.6512315876261242,0.00560535587584789 l -0.28975110835359585 16.83042957906977" fill="#ffb911" stroke="none" /><path d="M 100.72285384407766 79.0124445844662 l 0.7727436385720045 -22.43607067930148 a43.44937416182387,43.44937416182387 0 0,0 0.7472447526423235,0.03217793091987003 l -1.1588292236036595 22.419445021857417" fill="#fbff18" stroke="none" /><path d="M 101.44485096284872 79.0497635885617 l 1.1179164092939744 -16.20970858942995 a37.24821189092535,37.24821189092535 0 0,0 0.6392676663904665,0.04961947436176927 l -1.396774265046782 16.188063852879715" fill="#ffb110" stroke="none" /><path d="M 101.80526077348638 79.07773832637324 l 2.882347438758095 -33.4052720990228 a54.52939204291462,54.52939204291462 0 0,0 0.9344646681566737,0.08873868004690386 l -3.4569372340050126 33.35070787446072" fill="#77ff27" stroke="none" /><path d="M 103.2404852339499 79.25152402106235 l 1.5626096175717308 -10.00522013646837 a31.12650871703174,31.12650871703174 0 0,0 0.5286626940109016,0.08723387426855556 l -1.7346015177215075 9.97683999926019" fill="#ff5b08" stroke="none" /><path d="M 105.71112130821622 79.79150937346287 l 4.638029369452619 -16.411413447539175 a38.05420205632544,38.05420205632544 0 0,0 0.6288181128702001,0.18356925047481318 l -4.919837700046247 16.32914586814566" fill="#ffbc11" stroke="none" /><path d="M 109.73455568895987 81.39251694778311 l 8.079389042184491 -15.443652435541027 a38.42936969155119,38.42936969155119 0 0,0 0.5834949945212325,0.31168281836189954 l -8.344029083234034 15.302290890677373" fill="#ffc112" stroke="none" /><path d="M 110.36928655335952 81.73862282372117 l 3.8625741404780696 -6.802389237450311 a28.822530174340635,28.822530174340635 0 0,0 0.42932293415002004,0.24869155433763687 l -3.9790938070934176 6.734893525722625" fill="#ff3a05" stroke="none" /><line stroke="#e1ed5e" stroke-width="0.3" x1="143.23703022742887" x2="145.7803849466894" y1="26.81831364943548" y2="22.513508569990506" /><path d="M 143.74570117128098 25.957352633546492 a86.0,86.0 0 0,1 28.547481713284135,27.462654790039103" fill="none" id="id86" stroke="none" /><text fill="#e1ed5e" style="font-size:6.75px; font-family:Arial;" text-anchor="middle"><textPath startOffset="19.985693538727396" xlink:href="#id86">February</textPath></text><path d="M 111.90073688211348 82.69761687909136 l 7.624253937120016 -11.084839866463723 a34.45373267769334,34.45373267769334 0 0,0 0.4857465414749616,0.34029649431967113 l -7.8139316181786285 10.951958529380116" fill="#ff8b0c" stroke="none" /><path d="M 113.89432698308785 84.25364557470407 l 2.6530453847265245 -3.0066798474765215 a25.009834599910594,25.009834599910594 0 0,0 0.3203509861627423,0.28761427839973 l -2.704407358485257 2.960566560307494" fill="#ff0000" stroke="none" /><path d="M 114.68862486808459 84.99185889309783 l 11.764313735429011 -12.020218512817786 a37.81917746982566,37.81917746982566 0 0,0 0.4613294921375197,0.4593483966882514 l -11.969479027733854 11.815934265479415" fill="#ffb911" stroke="none" /><path d="M 115.9244219780498 86.31012108654704 l 12.754842681792912 -10.965060591497249 a37.82018328118015,37.82018328118015 0 0,0 0.42014511216530015,0.49731929221356136 l -12.94169840744533 10.74388234965458" fill="#ffb911" stroke="none" /><path d="M 116.38621287248628 86.86637796730983 l 21.567924960827426 -17.286787170973174 a48.6407018328118,48.6407018328118 0 0,0 0.518014022950193,0.6578252039990923 l -21.862293064371585 16.912969573021044" fill="#bbff1f" stroke="none" /><path d="M 116.60985879189232 87.15038557335679 l 6.860490082461302 -5.307369162010448 a29.67378185069289,29.67378185069289 0 0,0 0.30906523977559847,0.40669362732449965 l -6.950831262461015 5.188490758804915" fill="#ff4606" stroke="none" /><path d="M 117.2510076193507 88.02491185347247 l 51.75302285805209 -35.92526443958259 a84.0,84.0 0 0,0 0.8143021373250665,1.1948879069183742 l -52.36374946104589 35.02909850939381" fill="#4dd2ff" stroke="none" /><path d="M 117.45458315368197 88.32363383020206 l 7.508680999360762 -5.022984967833283 a30.033862315601255,30.033862315601255 0 0,0 0.283753301743434,0.43217574575030315 l -7.594030936462121 4.892991158105306" fill="#ff4b07" stroke="none" /><line stroke="#e1ed5e" stroke-width="0.3" x1="172.23445277983987" x2="176.4835382374775" y1="55.19839476539836" y2="52.563006222186495" /><path d="M 173.08426987136738 54.67131705675599 a86.0,86.0 0 0,1 12.851231095245387,41.99856678651699" fill="none" id="id87" stroke="none" /><text fill="#e1ed5e" style="font-size:6.75px; font-family:Arial;" text-anchor="middle"><textPath startOffset="22.20632615414155" xlink:href="#id87">March</textPath></text><path d="M 118.21658344932153 89.55222093294921 l 17.481940595483703 -10.026438465426002 a41.15310683951721,41.15310683951721 0 0,0 0.34714087684269457,0.6175248848831947 l -17.65193911361883 9.724030070608014" fill="#ffe515" stroke="none" /><path d="M 118.3937258080291 89.86733742301442 l 29.404236623634237 -16.198089019630356 a54.57063030844882,54.57063030844882 0 0,0 0.4461588211668586,0.8266645358405554 l -29.67870354401956 15.689543500457344" fill="#77ff27" stroke="none" /><line stroke="#e1ed5e" stroke-width="0.3" x1="184.98032266829074" x2="189.97916517819016" y1="98.17113171792111" y2="98.06355123074" /><path d="M 185.9800911702706 98.14961562048488 a86.0,86.0 0 0,1 -9.607161424134198,41.387399972396054" fill="none" id="id88" stroke="none" /><text fill="#e1ed5e" style="font-size:6.75px; font-family:Arial;" text-anchor="middle"><textPath startOffset="21.466115282336823" xlink:href="#id88">April</textPath></text><line stroke="#e1ed5e" stroke-width="0.3" x1="174.80103733775053" x2="179.2010983576182" y1="140.37084112569926" y2="142.7455964860345" /><path d="M 175.68104954172406 140.8457921977663 a86.0,86.0 0 0,1 -30.038265399797805,32.042727171017184" fill="none" id="id89" stroke="none" /><text fill="#e1ed5e" style="font-size:6.75px; font-family:Arial;" text-anchor="middle"><textPath startOffset="22.206326154141568" xlink:href="#id89">May</textPath></text><line stroke="#e1ed5e" stroke-width="0.3" x1="143.8653032363475" x2="146.44561519142675" y1="172.8068346515853" y2="177.08958963109032" /><path d="M 144.38136562736335 173.6633856474863 a86.0,86.0 0 0,1 -40.68145358897372,12.25698825130547" fill="none" id="id90" stroke="none" /><text fill="#e1ed5e" style="font-size:6.75px; font-family:Arial;" text-anchor="middle"><textPath startOffset="21.466115282336833" xlink:href="#id90">June</textPath></text><line stroke="#e1ed5e" stroke-width="0.3" x1="102.19456741930631" x2="102.32365962044197" y1="184.97166512339345" y2="189.96999836594603" /><path d="M 102.22038585953345 185.97133177190398 a86.0,86.0 0 0,1 -42.740103519485714,-10.115201625700543" fill="none" id="id91" stroke="none" /><text fill="#e1ed5e" style="font-size:6.75px; font-family:Arial;" text-anchor="middle"><textPath startOffset="22.20632615414155" xlink:href="#id91">July</textPath></text><line stroke="#e1ed5e" stroke-width="0.3" x1="58.666819895761336" x2="56.23545636021788" y1="174.27360380694188" y2="178.64263932499728" /><path d="M 58.180547188652646 175.14741091055294 a86.0,86.0 0 0,1 -31.652253787137756,-30.449443065178592" fill="none" id="id92" stroke="none" /><text fill="#e1ed5e" style="font-size:6.75px; font-family:Arial;" text-anchor="middle"><textPath startOffset="22.20632615414155" xlink:href="#id92">August</textPath></text><line stroke="#e1ed5e" stroke-width="0.3" x1="26.63291911575756" x2="22.317208475507996" y1="142.92168965132927" y2="145.44649492493687" /><path d="M 25.769776987707644 143.4266507060508 a86.0,86.0 0 0,1 -11.730757126820373,-40.83630448921669" fill="none" id="id93" stroke="none" /><text fill="#e1ed5e" style="font-size:6.75px; font-family:Arial;" text-anchor="middle"><textPath startOffset="21.46611528233685" xlink:href="#id93">September</textPath></text><line stroke="#e1ed5e" stroke-width="0.3" x1="15.007084014347285" x2="10.007500721073583" y1="101.09737516637583" y2="101.16192664675087" /><path d="M 14.007167355692545 101.11028546245083 a86.0,86.0 0 0,1 10.666146001902534,-42.60595125391555" fill="none" id="id94" stroke="none" /><text fill="#e1ed5e" style="font-size:6.75px; font-family:Arial;" text-anchor="middle"><textPath startOffset="22.20632615414155" xlink:href="#id94">October</textPath></text><line stroke="#e1ed5e" stroke-width="0.3" x1="26.266209847984243" x2="21.928928074336255" y1="57.711370442889674" y2="55.22380399835377" /><path d="M 25.398753493254645 57.213857153982495 a86.0,86.0 0 0,1 29.58750427330803,-30.492523968695096" fill="none" id="id95" stroke="none" /><text fill="#e1ed5e" style="font-size:6.75px; font-family:Arial;" text-anchor="middle"><textPath startOffset="21.46611528233685" xlink:href="#id95">November</textPath></text><line stroke="#e1ed5e" stroke-width="0.3" x1="56.762969772571076" x2="54.21961505331055" y1="26.818313649435495" y2="22.513508569990535" /><path d="M 56.25429882871897 25.957352633546506 a86.0,86.0 0 0,1 42.265352541879196,-11.944610805530505" fill="none" id="id96" stroke="none" /><text fill="#e1ed5e" style="font-size:6.75px; font-family:Arial;" text-anchor="middle"><textPath startOffset="22.20632615414155" xlink:href="#id96">December</textPath></text></svg>