<?xml version="1.0" encoding="utf-8" ?>
<svg baseProfile="full" height="200mm" version="1.1" viewBox="0,0,200,200" width="200mm" xmlns="http://www.w3.org/2000/svg" xmlns:ev="http://www.w3.org/2001/xml-events" xmlns:xlink="http://www.w3.org/1999/xlink"><defs /><rect fill="#1a1a1a" height="200" width="200" x="0" y="0" /><text alignment-baseline="middle" fill="#e1ed5e" style="dominant-baseline: central; font-size:9.0px; font-family:Arial;" text-anchor="middle" x="100.0" y="100.0">2021</text><line stroke="#e1ed5e" stroke-width="0.3" x1="100.0" x2="100.0" y1="15.0" y2="10.0" /><path d="M 100.0 14.0 a86.0,86.0 0 0,1 42.46469731375804,11.215312516191453" fill="none" id="id61" stroke="none" /><text fill="#e1ed5e" style="font-size:6.75px; font-family:Arial;" text-anchor="middle"><textPath startOffset="22.20632615414155" xlink:href="#id61">January</textPath></text><path d="M 105.71112130821622 79.79150937346287 l 8.164859087781418 -28.89090765854566 a51.022482729746706,51.022482729746706 0 0,0 0.8431095534885525,0.24612679824952058 l -8.660958858993396 28.74608253137744" fill="#98ff23" stroke="none" /><path d="M 106.40334571778207 80.00007090966166 l 9.076745906089494 -28.349909952337676 a50.76751099016119,50.76751099016119 0 0,0 0.8299694569009141,0.27362788083831624 l -9.563398185232826 28.189468347240126" fill="#9bff22" stroke="none" /><path d="M 106.74666289553966 80.11325718540242 l 9.636933091679222 -28.406222881301957 a50.99639941385807,50.99639941385807 0 0,0 0.8288566118060421,0.2891717968329313 l -10.124471707548537 28.23613023129682" fill="#99ff23" stroke="none" /><path d="M 107.08798089147638 80.2323363322302 l 9.91555654960006 -27.653486931229413 a50.37743353569186,50.37743353569186 0 0,0 0.8137578970249525,0.2997139010596862 l -10.39009677239759 27.4787097623634" fill="#a0ff22" stroke="none" /><path d="M 108.76106565485865 80.91482961587045 l 12.24189432177891 -26.667833361811294 a50.34343730374712,50.34343730374712 0 0,0 0.78445093351708,0.36831023162491017 l -12.699123466595589 26.453158147546382" fill="#a0ff22" stroke="none" /><path d="M 109.08828744355905 81.06846463323043 l 6.36249879727439 -13.253527878565745 a35.701611890307724,35.701611890307724 0 0,0 0.5517237558308032,0.27072845087621106 l -6.589693820115625 13.142044267554702" fill="#ffa80f" stroke="none" /><path d="M 109.41281617654863 81.2277094730956 l 13.20368979629379 -26.332555128473118 a50.457441909147995,50.457441909147995 0 0,0 0.7730548932079984,0.3959887419160896 l -13.655005177090544 26.10137386124453" fill="#9fff22" stroke="none" /><path d="M 109.73455568895987 81.39251694778311 l 6.865201830798937 -13.122748566893147 a35.810048147372825,35.810048147372825 0 0,0 0.5437243445642619,0.2904387144997162 l -7.0900712218915105 13.002631125891677" fill="#ffa90f" stroke="none" /><path d="M 110.05341064243156 81.56283822128135 l 5.533409564257319 -10.147836485812364 a32.558425790244925,32.558425790244925 0 0,0 0.4897344002321029,0.27253666350498046 l -5.7072680535614575 10.051084424747204" fill="#ff7d0b" stroke="none" /><path d="M 110.36928655335952 81.73862282372117 l 30.635522051954 -53.95229655425866 a83.04341637010675,83.04341637010675 0 0,0 1.2369643803719828,0.7165296096376403 l -31.55968316479131 53.41696278723097" fill="#4cdbff" stroke="none" /><line stroke="#e1ed5e" stroke-width="0.3" x1="143.23703022742887" x2="145.7803849466894" y1="26.81831364943548" y2="22.513508569990506" /><path d="M 143.74570117128098 25.957352633546492 a86.0,86.0 0 0,1 28.547481713284135,27.462654790039103" fill="none" id="id62" stroke="none" /><text fill="#e1ed5e" style="font-size:6.75px; font-family:Arial;" text-anchor="middle"><textPath startOffset="19.985693538727396" xlink:href="#id62">February</textPath></text><path d="M 110.99172775467656 82.1063720568725 l 7.7653093628809815 -12.64128440076757 a35.835838392296424,35.835838392296424 0 0,0 0.5228292639086842,0.3273956370951692 l -7.981757779161929 12.505744422349457" fill="#ffaa0f" stroke="none" /><path d="M 111.60114157652 82.49532879139004 l 6.556089972780707 -9.892319529990262 a32.86761565836299,32.86761565836299 0 0,0 0.46890396939502815,0.31660605327773983 l -6.725398636582277 9.778001564413852" fill="#ff810b" stroke="none" /><path d="M 111.90073688211348 82.69761687909136 l 3.366187078733876 -4.894071608325676 a26.939962319447353,26.939962319447353 0 0,0 0.3798135211227696,0.26608364382961064 l -3.4499317394402964 4.8354031217321305" fill="#ff2d04" stroke="none" /><path d="M 116.60985879189232 87.15038557335679 l 23.225985923818786 -17.967941060726677 a50.36483148419511,50.36483148419511 0 0,0 0.5245714481976924,0.690274536254171 l -23.531833312240593 17.565481748591473" fill="#a0ff22" stroke="none" /><path d="M 117.2510076193507 88.02491185347247 l 12.082807485869413 -8.387491785610546 a35.7086455934687,35.7086455934687 0 0,0 0.34616221937791525,0.5079503427627362 l -12.225394170916061 8.178263419577403" fill="#ffa80f" stroke="none" /><line stroke="#e1ed5e" stroke-width="0.3" x1="172.23445277983987" x2="176.4835382374775" y1="55.19839476539836" y2="52.563006222186495" /><path d="M 173.08426987136738 54.67131705675599 a86.0,86.0 0 0,1 12.851231095245387,41.99856678651699" fill="none" id="id63" stroke="none" /><text fill="#e1ed5e" style="font-size:6.75px; font-family:Arial;" text-anchor="middle"><textPath startOffset="22.20632615414155" xlink:href="#id63">March</textPath></text><path d="M 118.21658344932153 89.55222093294921 l 53.73478999859458 -30.8185788889297 a82.94523759681807,82.94523759681807 0 0,0 0.6996721443552343,1.2446386732920895 l -54.25731978424224 29.889056705702817" fill="#4cdcff" stroke="none" /><path d="M 118.3937258080291 89.86733742301442 l 12.882410573943764 -7.0966111426421286 a35.70776638057358,35.70776638057358 0 0,0 0.29193972774017507,0.540919977542017 l -13.002658400902403 6.873810181767652" fill="#ffa80f" stroke="none" /><path d="M 118.73160827565052 90.50648371742162 l 16.689443404401032 -8.458510362551841 a39.71052962110111,39.71052962110111 0 0,0 0.30376661733080884,0.6123749644486678 l -16.83257003468525 8.169975809604225" fill="#ffdd14" stroke="none" /><path d="M 119.04729006885535 91.15688171328212 l 26.663813721676682 -12.379254889457778 a50.39736236131463,50.39736236131463 0 0,0 0.3585356746637633,0.7899858334169612 l -26.87295171330379 11.918447047198754" fill="#9fff22" stroke="none" /><path d="M 119.196687751892 91.48605970444005 l 26.99940257673123 -11.974529383665217 a50.5356918568139,50.5356918568139 0 0,0 0.3458308763977021,0.798225343705382 l -27.201524162971616 11.508004895373233" fill="#9eff22" stroke="none" /><path d="M 119.34039704204932 91.81776055985345 l 27.04173747608454 -11.44040478723609 a50.36219384550973,50.36219384550973 0 0,0 0.330899550072084,0.8012995072164263 l -27.23465871304282 10.973230709566362" fill="#a0ff22" stroke="none" /><path d="M 119.47837535516314 92.15188598940014 l 27.249065996467902 -10.979035608632191 a50.3777266066569,50.3777266066569 0 0,0 0.3171552571283961,0.8071255356141825 l -27.434014803477996 10.508361068122223" fill="#a0ff22" stroke="none" /><path d="M 119.61058180528143 92.48833698450437 l 13.705649657758546 -5.24983004888711 a35.676700858279254,35.676700858279254 0 0,0 0.21473196599460123,0.5753749108488053 l -13.793986212254772 5.013132001008971" fill="#ffa80f" stroke="none" /><path d="M 119.7369772167798 92.82701384747503 l 7.007033192626633 -2.5465577382469142 a28.455432279673435,28.455432279673435 0 0,0 0.16334355693046335,0.46179423152235416 l -7.049829830366906 2.425565880297946" fill="#ff4306" stroke="none" /><path d="M 120.08093135843002 93.85539295169968 l 28.052771054500077 -8.583927292469609 a50.33669667155118,50.33669667155118 0 0,0 0.2463959798434507,0.8307247540292095 l -28.19637293145523 8.09977315169387" fill="#a0ff22" stroke="none" /><path d="M 120.18372546131832 94.20196356495316 l 6.223984338752209 -1.7879200763211935 a27.475696043541973,27.475696043541973 0 0,0 0.1266671840434428,0.45568925536487115 l -6.253838293362016 1.6805195175373704" fill="#ff3405" stroke="none" /><path d="M 120.28053869075195 94.5502522615342 l 17.86544083787097 -4.800767242306021 a39.49922545530667,39.49922545530667 0 0,0 0.17079402664875043,0.6581390559458876 l -17.94543119639002 4.492531760811283" fill="#ffda14" stroke="none" /><path d="M 120.6074358757038 95.95851677861258 l 60.75706525067419 -11.915536764127133 a82.91446514548879,82.91446514548879 0 0,0 0.2626188393596853,1.4029203410313527 l -60.95316981394373 10.867938345633217" fill="#4cdcff" stroke="none" /><path d="M 120.67395015179393 96.31383870115 l 14.45604072856721 -2.5775092557055337 a35.684027632405275,35.684027632405275 0 0,0 0.10261390486580371,0.6056330751580754 l -14.498266494953237 2.3282903922316205" fill="#ffa80f" stroke="none" /><path d="M 120.73433829027371 96.67025291283417 l 14.519100663635113 -2.3316361711762297 a35.70512874188822,35.70512874188822 0 0,0 0.09222822896373813,0.6076687954526585 l -14.557084786038152 2.081368263331489" fill="#ffa80f" stroke="none" /><path d="M 120.78858239683441 97.02765380044208 l 14.547800930945007 -2.0800408601023226 a35.6957504710069,35.6957504710069 0 0,0 0.08173307139424477,0.6090063171427805 l -14.581450001397089 1.8293162008948776" fill="#ffa80f" stroke="none" /><line stroke="#e1ed5e" stroke-width="0.3" x1="184.98032266829074" x2="189.97916517819016" y1="98.17113171792111" y2="98.06355123074" /><path d="M 185.9800911702706 98.14961562048488 a86.0,86.0 0 0,1 -9.607161424134198,41.387399972396054" fill="none" id="id64" stroke="none" /><text fill="#e1ed5e" style="font-size:6.75px; font-family:Arial;" text-anchor="middle"><textPath startOffset="21.466115282336823" xlink:href="#id64">April</textPath></text><path d="M 120.99824983174949 100.27111621757518 l 14.83870460512829 0.191588037026545 a35.839941385806995,35.839941385806995 0 0,0 -0.013274324641514944,0.6168057056340949 l -14.833208217801769 -0.4469835584507547" fill="#ffaa0f" stroke="none" /><path d="M 120.9904718944345 100.63252640178507 l 29.468683290271827 0.8880086308055645 a50.48205987021143,50.48205987021143 0 0,0 -0.03364957940289648,0.8683461258438826 l -29.449031578017728 -1.3951320036634534" fill="#9eff22" stroke="none" /><path d="M 120.9764740272857 100.99374915477107 l 14.801653475230195 0.7012203581541349 a35.81825413439397,35.81825413439397 0 0,0 -0.03447702956637822,0.6156105232661163 l -14.787390094776288 -0.9559025977556745" fill="#ffa90f" stroke="none" /><path d="M 120.95626037817324 101.35467743843564 l 29.35163279343862 1.897380258165367 a50.4128951224618,50.4128951224618 0 0,0 -0.06343248461091745,0.8654858551723058 l -29.314623750163364 -2.402339249834443" fill="#9fff22" stroke="none" /><path d="M 120.89721153311464 102.0752229133903 l 29.31879798823644 2.911538761132561 a50.46301025748378,50.46301025748378 0 0,0 -0.0932789484535396,0.863647214062151 l -29.26433673828185 -3.4157822970795038" fill="#9fff22" stroke="none" /><path d="M 120.8583938346157 102.4346265915055 l 14.61819582146021 1.7062602494204682 a35.71743772241993,35.71743772241993 0 0,0 -0.07653479957517101,0.6100576558751284 l -14.58665951263819 -1.9576356595829913" fill="#ffa80f" stroke="none" /><path d="M 120.76222939487914 103.15116336523771 l 62.28668818463745 9.453490095713112 a84.0,84.0 0 0,0 -0.2292729825548463,1.4276830812271801 l -62.114733447721314 -10.524252406633499" fill="#4dd2ff" stroke="none" /><path d="M 120.64145759157962 103.86396538481128 l 14.605008720858104 2.7339759264521946 a35.85869792756961,35.85869792756961 0 0,0 -0.11879485801078246,0.6057324216677357 l -14.555783929871657 -2.984972075187875" fill="#ffaa0f" stroke="none" /><path d="M 120.41448212921028 104.9243191809786 l 14.291989337964331 3.4474701237009504 a35.70190496127277,35.70190496127277 0 0,0 -0.1492487292244182,0.5961744833523024 l -14.230529294444853 -3.692972446450649" fill="#ffa80f" stroke="none" /><path d="M 120.23288151984713 105.62410040840565 l 21.12402622819459 5.87181042011354 a42.92493196566883,42.92493196566883 0 0,0 -0.20401067958747562,0.7101879393307641 l -21.01982291172102 -6.234555834948886" fill="#f9ff18" stroke="none" /><path d="M 120.13307415673323 105.97154293290107 l 14.210457868270739 4.214873426479728 a35.822357127904546,35.822357127904546 0 0,0 -0.18043077761220983,0.5896582208916267 l -14.135800318152397 -4.4588586199234115" fill="#ffa90f" stroke="none" /><path d="M 119.79798401119884 107.00284435728193 l 27.740110176880375 9.812093691593121 a50.42432489009839,50.42432489009839 0 0,0 -0.29648479900559227,0.815798831709024 l -27.567101116869555 -10.288140320308276" fill="#9fff22" stroke="none" /><path d="M 119.67450827220406 107.3425965602758 l 13.839563393373435 5.164974349649585 a35.77194892191752,35.77194892191752 0 0,0 -0.22026274408061067,0.5750365202137087 l -13.748606369699317 -5.402434436696438" fill="#ffa90f" stroke="none" /><path d="M 119.26925614724726 108.34839909993367 l 13.537287760134358 5.8650256184587395 a35.75319238015491,35.75319238015491 0 0,0 -0.24952138536331536,0.5626048522723406 l -13.43432529003977 -6.097178807223767" fill="#ffa90f" stroke="none" /><line stroke="#e1ed5e" stroke-width="0.3" x1="174.80103733775053" x2="179.2010983576182" y1="140.37084112569926" y2="142.7455964860345" /><path d="M 175.68104954172406 140.8457921977663 a86.0,86.0 0 0,1 -30.038265399797805,32.042727171017184" fill="none" id="id65" stroke="none" /><text fill="#e1ed5e" style="font-size:6.75px; font-family:Arial;" text-anchor="middle"><textPath startOffset="22.206326154141568" xlink:href="#id65">May</textPath></text><path d="M 116.498646956653 112.99209946851258 l 9.772550035325144 7.695536637249027 a33.438810969227546,33.438810969227546 0 0,0 -0.35999600963457223,0.4491503739360658 l -9.638636113635718 -7.8626148447633435" fill="#ff890c" stroke="none" /><path d="M 116.27256486870786 113.27417163493432 l 11.36933483479157 9.27441391014377 a35.67230479380364,35.67230479380364 0 0,0 -0.3922322795193328,0.4724690481525221 l -11.208006555378693 -9.468744215410062" fill="#ffa70f" stroke="none" /><path d="M 115.07121518719521 114.62390073753431 l 44.432478954855526 43.113720671339905 a82.91153443583838,82.91153443583838 0 0,0 -1.0026743552862833,1.0157038282032806 l -43.68376397451371 -43.87216499352385" fill="#4cdcff" stroke="none" /><line stroke="#e1ed5e" stroke-width="0.3" x1="143.8653032363475" x2="146.44561519142675" y1="172.8068346515853" y2="177.08958963109032" /><path d="M 144.38136562736335 173.6633856474863 a86.0,86.0 0 0,1 -40.68145358897372,12.25698825130547" fill="none" id="id66" stroke="none" /><text fill="#e1ed5e" style="font-size:6.75px; font-family:Arial;" text-anchor="middle"><textPath startOffset="21.466115282336833" xlink:href="#id66">June</textPath></text><path d="M 110.5260780823613 118.17145234162733 l 3.9056149323248857 6.7423683400578565 a28.791877747540298,28.791877747540298 0 0,0 -0.43098867964730386,0.24472662041733462 l -3.7889774857563827 -6.80859812626982" fill="#ff4806" stroke="none" /><path d="M 110.21172684928248 118.3499491758327 l 1.75105000065779 3.1465470033278393 a24.600962947456562,24.600962947456562 0 0,0 -0.3717992593136821,0.20273460065566037 l -1.6966279294754592 -3.17622225574327" fill="#ff0a01" stroke="none" /><path d="M 109.89434966115114 118.52300852407294 l 7.627990565645262 14.280204268883352 a37.18982625078501,37.18982625078501 0 0,0 -0.5672495086469233,0.29675813305662235 l -7.3810501544718425 -14.409391820884691" fill="#ffbc11" stroke="none" /><path d="M 108.59647513512805 119.15986991738527 l 6.072179087144945 13.533705338057892 a35.833493824576095,35.833493824576095 0 0,0 -0.5649394742902952,0.24765286348810744 l -5.838318938196896 -13.636222754840455" fill="#ffaa0f" stroke="none" /><path d="M 108.2653958097858 119.30500536409082 l 5.793217134252631 13.530881088559529 a35.71890307724513,35.71890307724513 0 0,0 -0.567298743414534,0.23713092075656558 l -5.559446931340635 -13.628597052336067" fill="#ffa80f" stroke="none" /><path d="M 107.93186726928326 119.44442032107085 l 5.589445340802304 13.70213606436608 a35.7983253087712,35.7983253087712 0 0,0 -0.5725668087720617,0.2278361496426361 l -5.352757455988376 -13.796319058414785" fill="#ffa90f" stroke="none" /><path d="M 105.53697534728816 120.25689768951611 l 4.6405347499273315 16.97729026371084 a38.60008373456144,38.60008373456144 0 0,0 -0.6424332463574137,0.16967245934790676 l -4.34761106075842 -17.054654072362332" fill="#ffce13" stroke="none" /><path d="M 103.7750983002368 120.6578951692458 l 3.317850681120834 18.155768699719818 a39.45643709441072,39.45643709441072 0 0,0 -0.6691643168201303,0.11634279387535297 l -3.0048373928286534 -18.210190072116177" fill="#ffd914" stroke="none" /><path d="M 103.41894727170886 120.7198165907248 l 2.416714525323478 14.64599414304949 a35.844044379317566,35.844044379317566 0 0,0 -0.6096289121674735,0.09521149842875207 l -2.164249749547487 -14.685423948825347" fill="#ffaa0f" stroke="none" /><path d="M 103.06178313531738 120.77559828337769 l 2.1403212231951354 14.52305795847308 a35.679924638894704,35.679924638894704 0 0,0 -0.6083790896093688,0.0843157982569688 l -1.8900135423989362 -14.557748322222652" fill="#ffa80f" stroke="none" /><path d="M 101.62511606390274 120.93702456842531 l 1.1384544143426902 14.66716659355587 a35.711283232154074,35.711283232154074 0 0,0 -0.6132770758993201,0.042295177782452315 l -0.8858145776644398 -14.684590115854606" fill="#ffa80f" stroke="none" /><path d="M 100.90346689309514 120.98055641714683 l 1.263882790647646 29.350233413645917 a50.37743353569186,50.37743353569186 0 0,0 -0.8666829272051587,0.029850312393365556 l -0.758479511767835 -29.367640524465376" fill="#a0ff22" stroke="none" /><line stroke="#e1ed5e" stroke-width="0.3" x1="102.19456741930631" x2="102.32365962044197" y1="184.97166512339345" y2="189.96999836594603" /><path d="M 102.22038585953345 185.97133177190398 a86.0,86.0 0 0,1 -42.740103519485714,-10.115201625700543" fill="none" id="id67" stroke="none" /><text fill="#e1ed5e" style="font-size:6.75px; font-family:Arial;" text-anchor="middle"><textPath startOffset="22.20632615414155" xlink:href="#id67">July</textPath></text><path d="M 100.18074693466247 120.99922214144158 l 0.32880529872565306 38.2006783247373 a59.20209336403601,59.20209336403601 0 0,0 -1.0191044667761908,0.0 l 0.32880529872562675 -38.2006783247373" fill="#40ff2d" stroke="none" /><path d="M 99.81925306533755 120.99922214144158 l -0.0771999153631181 8.969104649205493 a29.969436885074316,29.969436885074316 0 0,0 -0.5158172648325418,-0.00888026199753169 l 0.23157687008832778 -8.9664469099288" fill="#ff5808" stroke="none" /><path d="M 98.73552117531835 120.96189622390904 l -0.7069469847961972 11.719412806168721 a32.740715930500315,32.740715930500315 0 0,0 -0.5622629239665209,-0.03877694318636085 l 0.9085726695416482 -11.705507518466076" fill="#ff7f0b" stroke="none" /><path d="M 98.01472825383883 120.90594882070398 l -0.2784450638325283 2.932172013789337 a23.945363198660246,23.945363198660246 0 0,0 -0.40999866993705947,-0.04249803852239298 l 0.3288763303751811 -2.9269446068111833" fill="#ff0000" stroke="none" /><path d="M 97.65516085044442 120.86867818915974 l -0.9965116430432854 8.868787777772555 a29.92459702742307,29.92459702742307 0 0,0 -0.5113865356847643,-0.061921787711127364 l 1.1490256017794391 -8.850320461336079" fill="#ff5808" stroke="none" /><path d="M 97.2962882734958 120.8252237178851 l -1.1420828488985966 8.796844204772114 a29.870671969855557,29.870671969855557 0 0,0 -0.5093254092591532,-0.07058786073961663 l 1.2933368493445807 -8.775881778539892" fill="#ff5708" stroke="none" /><path d="M 95.86986931433489 120.58985236759428 l -2.914060666738825 14.527404453959441 a35.81678877956877,35.81678877956877 0 0,0 -0.6034421759234078,-0.12645717512313095 l 3.1636943040916194 -14.475091298109769" fill="#ffa90f" stroke="none" /><path d="M 94.46302465271185 120.25689768951611 l -3.2734261344193794 11.975754656664316 a33.41507222105924,33.41507222105924 0 0,0 -0.5535267686304687,-0.1564321938444185 l 3.479084071154462 -11.917633669481376" fill="#ff890c" stroke="none" /><path d="M 94.11515582081647 120.15858648285463 l -4.1330651499185205 14.157851716553761 a35.7487963156793,35.7487963156793 0 0,0 -0.5892168113569021,-0.1775261918426292 l 4.376156935715668 -14.084610155605407" fill="#ffa80f" stroke="none" /><path d="M 93.76903079525671 120.05430185196036 l -1.0922783362051562 3.5154851100756965 a24.681264391877747,24.681264391877747 0 0,0 -0.4046301193471686,-0.1295497864169444 l 1.1526298006432651 -3.4961624769990456" fill="#ff0b01" stroke="none" /><path d="M 93.08242187328487 119.8279376855182 l -3.5518054128808343 10.180582728182259 a31.78237387481683,31.78237387481683 0 0,0 -0.5149961974453795,-0.1846593137168479 l 3.7265211709559405 -10.117935873425452" fill="#ff720a" stroke="none" /><path d="M 92.7421414339146 119.70592522655815 l -5.1387927777793125 13.95241658564233 a35.86866234038099,35.86866234038099 0 0,0 -0.5775363275608084,-0.21837482126438165 l 5.378199326100404 -13.861893514271316" fill="#ffaa0f" stroke="none" /><path d="M 91.7346041902142 119.30500536409082 l -2.3320285686475386 5.446783803584175 a26.92501570023027,26.92501570023027 0 0,0 -0.4244912396600908,-0.1860844848193718 l 2.4254404829653726 -5.405834765470351" fill="#ff2c04" stroke="none" /><line stroke="#e1ed5e" stroke-width="0.3" x1="58.666819895761336" x2="56.23545636021788" y1="174.27360380694188" y2="178.64263932499728" /><path d="M 58.180547188652646 175.14741091055294 a86.0,86.0 0 0,1 -31.652253787137756,-30.449443065178592" fill="none" id="id68" stroke="none" /><text fill="#e1ed5e" style="font-size:6.75px; font-family:Arial;" text-anchor="middle"><textPath startOffset="22.20632615414155" xlink:href="#id68">August</textPath></text><path d="M 86.24171649860922 115.8653595955263 l -40.66273121309099 46.890213649595594 a83.06568976344987,83.06568976344987 0 0,0 -1.0721709724510506,-0.9460662240066519 l 41.46384453844863 -46.18332428381665" fill="#4cdbff" stroke="none" /><path d="M 85.97065885151581 115.62618273729859 l -4.356525991137 4.852392604670027 a27.5211220431233,27.5211220431233 0 0,0 -0.34978094630891843,-0.31951660122700437 l 4.439406486912773 -4.776683236856447" fill="#ff3505" stroke="none" /><path d="M 85.18274418774928 114.88116024355367 l -4.549913887892719 4.56953693167136 a27.448440443793178,27.448440443793178 0 0,0 -0.3319423227764827,-0.33625582045577995 l 4.627896835724735 -4.490540617234916" fill="#ff3404" stroke="none" /><path d="M 84.43433777217949 114.09645910891817 l -4.756699543682724 4.307726817500259 a27.417374921498848,27.417374921498848 0 0,0 -0.31378682991694445,-0.35254282984303503 l 4.830145223248007 -4.225209817916361" fill="#ff3404" stroke="none" /><path d="M 83.50135304334701 112.99209946851258 l -4.735805883810463 3.7292792110580817 a27.0278836089596,27.0278836089596 0 0,0 -0.2846849333012082,-0.36799365220701274 l 4.79929763432974 -3.6472075647378164" fill="#ff2e04" stroke="none" /><path d="M 83.28015986056508 112.70617746262583 l -4.689628736618005 3.5638651126069933 a26.890140255390413,26.890140255390413 0 0,0 -0.27688999367700595,-0.37093939524642333 l 4.750279996990096 -3.482612837851262" fill="#ff2c04" stroke="none" /><path d="M 82.85270091963577 112.12312394758628 l -7.305699443506238 5.165122475694112 a29.94716349173121,29.94716349173121 0 0,0 -0.2939657673929874,-0.4234796129325561 l 7.393526118061359 -5.038601600574543" fill="#ff5808" stroke="none" /><path d="M 82.6465618267979 111.8261652097733 l -12.219455396930922 8.327415976893748 a35.78718861209965,35.78718861209965 0 0,0 -0.34252922748154774,-0.5120347201090365 l 12.3609877298232 -8.11584434257889" fill="#ffa90f" stroke="none" /><path d="M 82.44556493220864 111.52570212397912 l -12.280142519127907 8.062763863883571 a35.690475193636175,35.690475193636175 0 0,0 -0.33276292698457893,-0.5164554523754952 l 12.41711030948953 -7.850186811586627" fill="#ffa80f" stroke="none" /><path d="M 82.24976979558568 111.22182372390057 l -12.41760574540341 7.850500029749323 a35.69106133556626,35.69106133556626 0 0,0 -0.3238290110573907,-0.5221154752263489 l 12.550899396128758 -7.6355882231577095" fill="#ffa80f" stroke="none" /><path d="M 82.05923443525364 110.91462005526583 l -7.518571615990074 4.57407195086983 a29.800628009210804,29.800628009210804 0 0,0 -0.2628402963575604,-0.44053545524087195 l 7.596192788045866 -4.443974401742847" fill="#ff5608" stroke="none" /><line stroke="#e1ed5e" stroke-width="0.3" x1="26.63291911575756" x2="22.317208475507996" y1="142.92168965132927" y2="145.44649492493687" /><path d="M 25.769776987707644 143.4266507060508 a86.0,86.0 0 0,1 -11.730757126820373,-40.83630448921669" fill="none" id="id69" stroke="none" /><text fill="#e1ed5e" style="font-size:6.75px; font-family:Arial;" text-anchor="middle"><textPath startOffset="21.46611528233685" xlink:href="#id69">September</textPath></text><path d="M 81.51974371655577 109.97397251340807 l -13.21020455089383 7.129674776488378 a36.01138790035587,36.01138790035587 0 0,0 -0.2897158886240862,-0.5480332789934709 l 13.3309729477428 -6.901226482408781" fill="#ffac0f" stroke="none" /><path d="M 81.35079622478065 109.6543875284942 l -7.131488837412401 3.691855036888836 a29.030437513083527,29.030437513083527 0 0,0 -0.22591393881308444,-0.4457496337391506 l 7.193981446011752 -3.5685511914470003" fill="#ff4b07" stroke="none" /><path d="M 81.18737489456691 109.33194174019688 l -10.649329419113485 5.28256535993114 a32.887544483985764,32.887544483985764 0 0,0 -0.2471996092731293,-0.5093044132083405 l 10.738682285001333 -5.098471990757515" fill="#ff810b" stroke="none" /><path d="M 80.87730276802145 108.67885076344099 l -4.63983272730694 2.105791631751937 a26.095331798199705,26.095331798199705 0 0,0 -0.18211921532959469,-0.4106307524995306 l 4.675393027367814 -2.0256125427597107" fill="#ff2003" stroke="none" /><path d="M 80.73074385275274 108.34839909993369 l -10.841124727096865 4.696913841528528 a32.81486288465564,32.81486288465564 0 0,0 -0.22009243998155917,-0.5202335138606637 l 10.92036814827073 -4.509605802001706" fill="#ff800b" stroke="none" /><path d="M 80.58989483394504 108.01547362559985 l -13.651679157821107 5.637510631628714 a35.769897425162235,35.769897425162235 0 0,0 -0.2301152204962292,-0.5711271056597574 l 13.746696992574725 -5.401684158126151" fill="#ffa90f" stroke="none" /><path d="M 80.45479744820244 107.68017299344265 l -13.809979205846888 5.426550533598604 a35.8378898890517,35.8378898890517 0 0,0 -0.22066876999772986,-0.5760965257605767 l 13.901342255438127 -5.188030441004869" fill="#ffaa0f" stroke="none" /><path d="M 80.32549172779594 107.34259656027581 l -2.790757129002611 1.0415205001555141 a23.9787732886749,23.9787732886749 0 0,0 -0.14099032152415805,-0.3879448119008653 l 2.8082717115319933 -0.9933278912485316" fill="#ff0100" stroke="none" /><path d="M 80.20201598880116 107.00284435728193 l -13.929735006749013 4.927156529435848 a35.77546577349801,35.77546577349801 0 0,0 -0.20035822867809866,-0.5823347981464858 l 14.01248406637034 -4.6866490282000655" fill="#ffa90f" stroke="none" /><path d="M 80.0844068197444 106.66101706037122 l -14.082246314479251 4.709981877019453 a35.84902658572326,35.84902658572326 0 0,0 -0.19069590776903708,-0.5869016559474585 l 14.161234473264539 -4.466881321094191" fill="#ffaa0f" stroke="none" /><path d="M 79.97269907076064 106.31721596034903 l -14.083255030667962 4.442284248273908 a35.76725978647687,35.76725978647687 0 0,0 -0.18015326220130254,-0.5887512844718503 l 14.157635065375395 -4.19920599125001" fill="#ffa90f" stroke="none" /><path d="M 79.67330655649465 105.27499134158121 l -14.332935774566343 3.719548008160384 a35.807703579652504,35.807703579652504 0 0,0 -0.14969101120808673,-0.5979411800235471 l 14.394838100069487 -3.4722789887394447" fill="#ffa90f" stroke="none" /><path d="M 79.35854240842038 103.8639653848113 l -60.88761880262115 11.39782161085792 a82.94523759681807,82.94523759681807 0 0,0 -0.2506271626923518,-1.4056502274612395 l 61.07479240765269 -10.348052632663466" fill="#4cdcff" stroke="none" /><path d="M 79.0235259727143 100.99374915477108 l -6.405501754113996 0.30345719427180196 a27.412685786058194,27.412685786058194 0 0,0 -0.018272339705953194,-0.4715278964942962 l 6.40977622667115 -0.19315205076350897" fill="#ff3404" stroke="none" /><line stroke="#e1ed5e" stroke-width="0.3" x1="15.007084014347285" x2="10.007500721073583" y1="101.09737516637583" y2="101.16192664675087" /><path d="M 14.007167355692545 101.11028546245083 a86.0,86.0 0 0,1 10.666146001902534,-42.60595125391555" fill="none" id="id70" stroke="none" /><text fill="#e1ed5e" style="font-size:6.75px; font-family:Arial;" text-anchor="middle"><textPath startOffset="22.20632615414155" xlink:href="#id70">October</textPath></text><path d="M 79.00175016825051 100.2711162175752 l -20.542562461874812 0.26523266836957404 a41.544274649361526,41.544274649361526 0 0,0 -0.0030776447941734753,-0.715136262887977 l 20.54408440395849 0.08841307272207843" fill="#fff417" stroke="none" /><path d="M 79.08570108090925 98.10471618934814 l -14.6500789288385 -1.327611196818764 a35.71011094829391,35.71011094829391 0 0,0 0.06074608596569396,-0.6117047956838543 l 14.625055717190577 1.5795915232070488" fill="#ffa80f" stroke="none" /><path d="M 79.21141760316559 97.0276538004421 l -61.750981911054595 -8.829139616092407 a83.37898262507849,83.37898262507849 0 0,0 0.2153723056398727,-1.4190343999070185 l 61.58985371197542 9.890773128391517" fill="#4cd8ff" stroke="none" /><path d="M 79.32604984820605 96.31383870115002 l -33.57774955991385 -5.986906228439915 a55.10730584048566,55.10730584048566 0 0,0 0.17454393120275039,-0.9324206598618743 l 33.46971990480124 6.564004965764362" fill="#6bff28" stroke="none" /><path d="M 79.3925641242962 95.95851677861259 l -15.104067054023973 -2.9621751071669165 a36.391794012978856,36.391794012978856 0 0,0 0.12584750972090522,-0.6136771512325122 l 15.050840248388074 3.2217279145628313" fill="#ffb110" stroke="none" /><path d="M 79.54389044137918 95.25157060432595 l -15.061383407908982 -3.496164092623983 a36.46183797362362,36.46183797362362 0 0,0 0.1471794239222839,-0.6101537307035024 l 14.998971183725883 3.7549030549868823" fill="#ffb210" stroke="none" /><path d="M 79.62865764111835 94.90015583598534 l -28.466431359325384 -7.126401455566577 a50.34490265857232,50.34490265857232 0 0,0 0.21769056347765153,-0.8388505426489983 l 28.339544463977425 7.615348423764439" fill="#a0ff22" stroke="none" /><path d="M 79.91906864156998 93.8553929516997 l -10.7961454141673 -3.3035355792159784 a32.29026585723257,32.29026585723257 0 0,0 0.16720901617337333,-0.5300982752537028 l 10.737680914225724 3.4888840208960956" fill="#ff790b" stroke="none" /><path d="M 80.2630227832202 92.82701384747504 l -13.802249547911787 -5.016135135257456 a35.685492987230475,35.685492987230475 0 0,0 0.21478488431634662,-0.5755167056417454 l 13.713860075093812 5.2529749779285435" fill="#ffa80f" stroke="none" /><path d="M 80.52162464483688 92.15188598940014 l -27.252599858440075 -10.980459451799282 a50.38153652920242,50.38153652920242 0 0,0 0.3310266391609837,-0.801607263525807 l 27.05955153239289 11.4479412857784" fill="#a0ff22" stroke="none" /><path d="M 81.26839172434947 90.50648371742162 l -55.16119452729456 -27.956686404342275 a82.84119740422858,82.84119740422858 0 0,0 0.655591693062078,-1.2663944803511267 l 54.67179340107237 28.90205360695374" fill="#4cddff" stroke="none" /><line stroke="#e1ed5e" stroke-width="0.3" x1="26.266209847984243" x2="21.928928074336255" y1="57.711370442889674" y2="55.22380399835377" /><path d="M 25.398753493254645 57.213857153982495 a86.0,86.0 0 0,1 29.58750427330803,-30.492523968695096" fill="none" id="id71" stroke="none" /><text fill="#e1ed5e" style="font-size:6.75px; font-family:Arial;" text-anchor="middle"><textPath startOffset="21.46611528233685" xlink:href="#id71">November</textPath></text><path d="M 81.78341655067845 89.55222093294921 l -30.140304012298014 -17.28640489641114 a55.74561440234457,55.74561440234457 0 0,0 0.4845629809455104,-0.8282752078339478 l 29.838281356882177 17.80265951659898" fill="#64ff29" stroke="none" /><path d="M 81.96595687620814 89.24020034530311 l -7.613786512887467 -4.542676144775528 a29.865982834414904,29.865982834414904 0 0,0 0.2672069687257901,-0.43921799924341165 l 7.53446374587546 4.673061917226013" fill="#ff5708" stroke="none" /><path d="M 82.15384107792192 88.93136811851018 l -9.995144091282363 -6.199237103732461 a32.761523969018214,32.761523969018214 0 0,0 0.3013629683686075,-0.47668384348574405 l 9.886953526667792 6.370368594932421" fill="#ff800b" stroke="none" /><path d="M 82.34701348167596 88.62581576622439 l -24.668111647195403 -15.894174409712528 a50.345195729537366,50.345195729537366 0 0,0 0.4756502964906799,-0.7244480340464234 l 24.3908647153468 16.31644050773662" fill="#a0ff22" stroke="none" /><path d="M 83.84228863543731 86.58626213691792 l -22.59148180142966 -18.754897150074722 a50.361900774544694,50.361900774544694 0 0,0 0.5594712826340884,-0.6622375323122387 l 22.265299905308446 19.140993632016077" fill="#a0ff22" stroke="none" /><path d="M 84.31358615837235 86.03803664274999 l -4.703625536266998 -4.186543084137517 a27.29692275486707,27.29692275486707 0 0,0 0.3154177094324325,-0.3482921127754697 l 4.63086418621852 4.266887984182543" fill="#ff3204" stroke="none" /><path d="M 84.80347519578584 85.50635884689758 l -11.193320530899712 -10.67559676811935 a36.467992463889466,36.467992463889466 0 0,0 0.43715699686506404,-0.45052871245434245 l 11.00789927033153 10.866689676123816" fill="#ffb210" stroke="none" /><path d="M 85.05521093208273 85.24692304244772 l -15.45473267647296 -15.256478997343164 a42.7165585095248,42.7165585095248 0 0,0 0.5210691919142175,-0.5188315552088941 l 15.18982768439143 15.520246403202167" fill="#fbff18" stroke="none" /><path d="M 85.31137513191541 84.99185889309783 l -10.291159503906924 -10.515019300674204 a35.713041657944316,35.713041657944316 0 0,0 0.4430402749267574,-0.42620439345918626 l 10.108635985367739 10.690606780895704" fill="#ffa80f" stroke="none" /><path d="M 85.57189188830299 84.74124197986013 l -42.49722678978892 -44.943862015192785 a82.85438559765542,82.85438559765542 0 0,0 1.0447232428228654,-0.9709563961517036 l 41.7172956631712 45.66872299741914" fill="#4cddff" stroke="none" /><path d="M 85.83668400450813 84.49514656593479 l -9.906908952760428 -10.845283078205053 a35.689009838810975,35.689009838810975 0 0,0 0.4571405481056869,-0.4104252977198006 l 9.71875741705877 11.014207384694133" fill="#ffa80f" stroke="none" /><path d="M 86.93701828274178 83.55741782278169 l -5.777573324727482 -7.2723231367022905 a30.288005024073684,30.288005024073684 0 0,0 0.41100454290613125,-0.32079556498426764 l 5.651536226661924 7.37069709090978" fill="#ff5d08" stroke="none" /><path d="M 88.39885842347998 82.49532879139004 l -16.19059884076695 -24.429588028796505 a50.30768264601215,50.30768264601215 0 0,0 0.7259469856248221,-0.4721761129795088 l 15.767684829357842 24.70466306593555" fill="#a0ff22" stroke="none" /><path d="M 89.00827224532344 82.1063720568725 l -15.353597529350033 -24.99439286620098 a50.33347289093574,50.33347289093574 0 0,0 0.7421501212399672,-0.4471371440727017 l 14.921085341892416 25.2549766197323" fill="#a0ff22" stroke="none" /><line stroke="#e1ed5e" stroke-width="0.3" x1="56.762969772571076" x2="54.21961505331055" y1="26.818313649435495" y2="22.513508569990535" /><path d="M 56.25429882871897 25.957352633546506 a86.0,86.0 0 0,1 42.265352541879196,-11.944610805530505" fill="none" id="id72" stroke="none" /><text fill="#e1ed5e" style="font-size:6.75px; font-family:Arial;" text-anchor="middle"><textPath startOffset="22.20632615414155" xlink:href="#id72">December</textPath></text><path d="M 90.26544431104013 81.39251694778311 l -15.874709390361307 -30.344311068559747 a55.24592840694997,55.24592840694997 0 0,0 0.8464189556361025,-0.43356866416740747 l 15.350029947136441 30.61307225803966" fill="#6aff28" stroke="none" /><path d="M 90.91171255644093 81.06846463323043 l -12.708128677794999 -26.471916629313743 a50.36424534226502,50.36424534226502 0 0,0 0.7847751641638726,-0.36846246226103824 l 12.250575302331518 26.686744074214786" fill="#a0ff22" stroke="none" /><path d="M 91.23893434514133 80.91482961587045 l -6.12094716088947 -13.333916680905642 a35.67171865187356,35.67171865187356 0 0,0 0.5602462226861995,-0.2513661493338867 l 5.890518819736496 13.437303160756057" fill="#ffa70f" stroke="none" /><path d="M 91.56875222667455 80.76684994638697 l -6.425656840434063 -14.658046534475016 a37.004605400879214,37.004605400879214 0 0,0 0.5855824481558402,-0.2507158439994251 l 6.172390634487914 14.766481906437228" fill="#ffb911" stroke="none" /><path d="M 92.57280143429618 80.3572730644239 l -21.874035237124733 -57.85030484118949 a82.8476449654595,82.8476449654595 0 0,0 1.3382564495430032,-0.49289114437745224 l 20.87499646180916 58.21825925337327" fill="#4cddff" stroke="none" /><path d="M 93.25333710446033 80.11325718540243 l -9.434688560249207 -27.810078528978234 a50.366882980950386,50.366882980950386 0 0,0 0.8234198151174625,-0.27146856691832144 l 8.954585922889335 27.96836082015579" fill="#a0ff22" stroke="none" /><path d="M 93.59665428221793 80.00007090966166 l -3.926277265459121 -12.263162159139004 a33.87636592003349,33.87636592003349 0 0,0 0.5568865254761587,-0.1730273542501434 l 3.7146053672722337 12.328929648271673" fill="#ff8f0d" stroke="none" /><path d="M 96.40284397218896 79.31037775812273 l -8.914049325103928 -51.27059036527 a73.0397320494034,73.0397320494034 0 0,0 1.2405304387363707,-0.20469815166646127 l 8.030189680228672 51.41643477987609" fill="#3fffbe" stroke="none" /><path d="M 99.27714615592234 79.0124445844662 l -0.3078547311383435 -8.938346641767426 a29.94364664015072,29.94364664015072 0 0,0 0.5152779209946106,-0.013308108481345763 l 0.15395017494885394 8.94232154239113" fill="#ff5808" stroke="none" /></svg>