<?xml version="1.0" encoding="utf-8" ?>
<svg baseProfile="full" height="200mm" version="1.1" viewBox="0,0,200,200" width="200mm" xmlns="http://www.w3.org/2000/svg" xmlns:ev="http://www.w3.org/2001/xml-events" xmlns:xlink="http://www.w3.org/1999/xlink"><defs /><rect fill="#1a1a1a" height="200" width="200" x="0" y="0" /><text alignment-baseline="middle" fill="#e1ed5e" style="dominant-baseline: central; font-size:9.0px; font-family:Arial;" text-anchor="middle" x="100.0" y="100.0">2020</text><line stroke="#e1ed5e" stroke-width="0.3" x1="100.0" x2="100.0" y1="15.0" y2="10.0" /><path d="M 100.0 14.0 a86.0,86.0 0 0,1 42.35913384403234,11.155469271406648" fill="none" id="id49" stroke="none" /><text fill="#e1ed5e" style="font-size:6.75px; font-family:Arial;" text-anchor="middle"><textPath startOffset="22.145653131862478" xlink:href="#id49">January</textPath></text><path d="M 100.0 79.0 l 0.0 -14.941585268896588 a35.94158526889659,35.94158526889659 0 0,0 0.6169851046328116,0.005296075074342952 l -0.25649217978395683 14.93938359201668" fill="#ffb911" stroke="none" /><path d="M 100.36049292484886 79.00309439819443 l 0.12947825343984254 -7.541459145426741 a28.54257056050883,28.54257056050883 0 0,0 0.4898267815335142,0.012616200357091645 l -0.25891834904409816 7.538125227719604" fill="#ff5507" stroke="none" /><path d="M 102.87502721639298 79.19773525538626 l 2.0726760040493373 -14.996851062904494 a36.13940314611846,36.13940314611846 0 0,0 0.6138103714544384,0.09020898688278675 l -2.3298114811114576 14.959061002722825" fill="#ffbb11" stroke="none" /><path d="M 103.94208987418118 79.37332000966035 l 1.1193674900414643 -5.857003707575506 a26.963008972684424,26.963008972684424 0 0,0 0.45388183011925176,0.09078907772586943 l -1.219745805691673 5.836925233186777" fill="#ff3e05" stroke="none" /><path d="M 104.64783097203109 79.52079915486377 l 3.316353696864362 -14.612466296707039 a35.98407064569255,35.98407064569255 0 0,0 0.6012215889107605,0.14188665794142516 l -3.5667074395150076 14.553383495119387" fill="#ffb911" stroke="none" /><path d="M 104.9986988182912 79.60360301121754 l 3.5520880409607454 -14.493731360136008 a35.92265318871032,35.92265318871032 0 0,0 0.5976754703540615,0.15192676737225666 l -3.8003688045402013 14.430619360928484" fill="#ffb811" stroke="none" /><path d="M 105.3480935250658 79.69241777938227 l 1.581550827422882 -6.005406097228077 a27.210169515588618,27.210169515588618 0 0,0 0.45067633529721723,0.12283383925390146 l -1.684408563654792 5.977371763830034" fill="#ff4206" stroke="none" /><path d="M 106.04205211174951 79.88797359093562 l 4.299116172278465 -14.310359525757915 a35.94218155488671,35.94218155488671 0 0,0 0.5893822330216074,0.1825921223784914 l -4.544139038171703 14.234450815572778" fill="#ffb911" stroke="none" /><path d="M 106.38641147887787 79.99465700312896 l 3.242212716046547 -10.156185154659733 a31.661146288829578,31.661146288829578 0 0,0 0.5163439382825092,0.16973250840724946 l -3.4160793919767984 10.099031724850462" fill="#ff800b" stroke="none" /><line stroke="#e1ed5e" stroke-width="0.3" x1="143.13028292997686" x2="145.6673583964461" y1="26.7553504044142" y2="22.446841604673864" /><path d="M 143.63769802327073 25.89364864446614 a86.0,86.0 0 0,1 29.32050498858742,28.57503671076993" fill="none" id="id50" stroke="none" /><text fill="#e1ed5e" style="font-size:6.75px; font-family:Arial;" text-anchor="middle"><textPath startOffset="20.669276256404974" xlink:href="#id50">February</textPath></text><line stroke="#e1ed5e" stroke-width="0.3" x1="172.87174338648825" x2="177.1583165268699" y1="56.24261187166439" y2="53.66864786411523" /><path d="M 173.72905801456457 55.72781907015455 a86.0,86.0 0 0,1 12.242430191666344,42.057860355516425" fill="none" id="id51" stroke="none" /><text fill="#e1ed5e" style="font-size:6.75px; font-family:Arial;" text-anchor="middle"><textPath startOffset="22.145653131862474" xlink:href="#id51">March</textPath></text><line stroke="#e1ed5e" stroke-width="0.3" x1="184.99686870605535" x2="189.99668451229388" y1="99.2704041080226" y2="99.22748670261217" /><path d="M 185.99683186730306 99.26182062694052 a86.0,86.0 0 0,1 -10.086455211305974,41.156179273409016" fill="none" id="id52" stroke="none" /><text fill="#e1ed5e" style="font-size:6.75px; font-family:Arial;" text-anchor="middle"><textPath startOffset="21.40746469413373" xlink:href="#id52">April</textPath></text><path d="M 120.65975698304385 103.76489593502545 l 6.055729210516257 1.1035555891097648 a27.155460275995228,27.155460275995228 0 0,0 -0.08751003246005412,0.45788946805093483 l -6.035892885774044 -1.2073476221940143" fill="#ff4106" stroke="none" /><path d="M 119.94978838288452 106.5578916946017 l 14.176653386457478 4.660147552244568 a35.92295133170538,35.92295133170538 0 0,0 -0.1976011704265903,0.5841727489392197 l -14.094566794458522 -4.902821975657948" fill="#ffb811" stroke="none" /><path d="M 119.83427380445688 106.89939002012753 l 7.032077383465834 2.446121546902645 a28.445375944119483,28.445375944119483 0 0,0 -0.1643869517911642,0.45981956122055273 l -6.9890502616307275 -2.566476064504119" fill="#ff5307" stroke="none" /><path d="M 119.71291397450082 107.23885506374661 l 14.018401784155433 5.147751310239137 a35.933684479527514,35.933684479527514 0 0,0 -0.21760295634710294,0.5772176944971179 l -13.927968143993889 -5.387637284930413" fill="#ffb811" stroke="none" /><path d="M 119.4528033332814 107.91128576633889 l 13.828182504648185 5.62380144131677 a35.92801976262139,35.92801976262139 0 0,0 -0.2372517999075228,0.5693179512929379 l -13.729604860204176 -5.860351902050986" fill="#ffb811" stroke="none" /><line stroke="#e1ed5e" stroke-width="0.3" x1="174.33088141563837" x2="178.70328620479359" y1="141.23008692659167" y2="143.65538615756765" /><path d="M 175.20536237346943 141.71514677278685 a86.0,86.0 0 0,1 -30.301960400862466,31.631185727798858" fill="none" id="id53" stroke="none" /><text fill="#e1ed5e" style="font-size:6.75px; font-family:Arial;" text-anchor="middle"><textPath startOffset="22.145653131862474" xlink:href="#id53">May</textPath></text><path d="M 113.86319453409587 115.77377054828091 l 2.3145016202467548 2.6334779766385004 a24.506012550400364,24.506012550400364 0 0,0 -0.3183687187113437,0.2749993165426245 l -2.2689534217725553 -2.6728214256458425" fill="#ff1b02" stroke="none" /><path d="M 113.31354834802062 116.24036423190432 l 2.787139064764298 3.399856476539628 a25.396267533647567,25.396267533647567 0 0,0 -0.3395229783773079,0.2734956778101708 l -2.728365316031738 -3.4472004481432026" fill="#ff2803" stroke="none" /><path d="M 112.7482090630111 116.68781488649013 l 4.576512214880158 5.990801397293847 a28.53884377307059,28.53884377307059 0 0,0 -0.3918614429479758,0.29406013220844407 l -4.472997783021416 -6.068480556766305" fill="#ff5507" stroke="none" /><path d="M 112.45986205192187 116.90419585922612 l 3.9342603493351183 5.337579760450883 a27.630849281617355,27.630849281617355 0 0,0 -0.38422536617747977,0.2781495344971751 l -3.8420539727836704 -5.404330066321135" fill="#ff4806" stroke="none" /><path d="M 112.16784306229584 117.11559508785304 l 3.46398985014987 4.872535531569499 a26.97836333692998,26.97836333692998 0 0,0 -0.37975888735687646,0.2651011969365966 l -3.379835871619235 -4.931281544311217" fill="#ff3f05" stroke="none" /><path d="M 111.8722381534696 117.32195027204791 l 7.004242950585341 10.219399789240601 a33.389332159691065,33.389332159691065 0 0,0 -0.4755653898536047,0.3199816181025178 l -6.8277812726347324 -10.33813108140024" fill="#ff970d" stroke="none" /><path d="M 111.5731344415666 117.5232005979908 l 8.39625678770082 12.713002921204037 a36.23540519052757,36.23540519052757 0 0,0 -0.5219871757677866,0.33834578086253836 l -8.176783979676024 -12.85526254377047" fill="#ffbc11" stroke="none" /><path d="M 111.27062007382361 117.71928675628689 l 4.490982711993446 7.060570755655152 a29.367830370833097,29.367830370833097 0 0,0 -0.4277017136676005,0.266917502010555 l -4.369116869536131 -7.136624054507254" fill="#ff6008" stroke="none" /><path d="M 110.96478420261333 117.91015095944535 l 2.3598041303795703 3.8545627008097005 a25.519549662104605,25.519549662104605 0 0,0 -0.37558366037915575,0.22552719666261056 l -2.293287713442978 -3.8945038980082343" fill="#ff2a04" stroke="none" /><line stroke="#e1ed5e" stroke-width="0.3" x1="143.1302829299769" x2="145.66735839644613" y1="173.24464959558577" y2="177.55315839532614" /><path d="M 143.63769802327073 174.10635135553383 a86.0,86.0 0 0,1 -40.68552437913181,11.842963189579606" fill="none" id="id54" stroke="none" /><text fill="#e1ed5e" style="font-size:6.75px; font-family:Arial;" text-anchor="middle"><textPath startOffset="21.407464694133747" xlink:href="#id54">June</textPath></text><path d="M 110.65571695917076 118.09573695890943 l 3.7548255853060692 6.376514727130046 a28.399909137372934,28.399909137372934 0 0,0 -0.42222216879848196,0.2437700828136321 l -3.644810948647189 -6.44003170721985" fill="#ff5307" stroke="none" /><path d="M 109.71004243097381 118.62028667847754 l 3.4743909277618394 6.662602719598921 a28.514097904480664,28.514097904480664 0 0,0 -0.43595717307250126,0.22260283888865942 l -3.359506532975756 -6.721263510160417" fill="#ff5407" stroke="none" /><path d="M 109.3889696526874 118.78422872680471 l 1.6277670923077985 3.256624582562549 a24.640773184167188,24.640773184167188 0 0,0 -0.3799838974262184,0.18586916546708676 l -1.5716229456195105 -3.2840874981268593" fill="#ff1d02" stroke="none" /><path d="M 109.06512990194946 118.94263497670748 l 0.8557278766264688 1.7881421426561424 a22.982352774149582,22.982352774149582 0 0,0 -0.35733321726411127,0.1672499884914734 l -0.8249059454908513 -1.8025683627181492" fill="#ff0500" stroke="none" /><path d="M 107.407793817531 119.65005319985036 l 1.8526320630461304 4.914326653159806 a26.251937929467886,26.251937929467886 0 0,0 -0.4230447897825918,0.1553479065890812 l -1.7679981216094116 -4.945405408757609" fill="#ff3405" stroke="none" /><path d="M 107.06938296918513 119.77432235084164 l 2.1439191550451957 5.996923444493275 a27.36863251746266,27.36863251746266 0 0,0 -0.44375530472461716,0.15436113018202485 l -2.040658078275557 -6.0328430072438906" fill="#ff4406" stroke="none" /><path d="M 106.72888874123015 119.89276391827305 l 0.5309188366657183 1.569567202507276 a22.656929695042308,22.656929695042308 0 0,0 -0.36949920263170694,0.12146172709176631 l -0.5038968963862771 -1.5784498510010616" fill="#ff0000" stroke="none" /><path d="M 106.38641147887787 120.00534299687104 l 1.3556027886407966 4.246406427767318 a25.457535919132262,25.457535919132262 0 0,0 -0.41745433132191795,0.12932841894704494 l -1.2825078244472545 -4.269051434521007" fill="#ff2904" stroke="none" /><path d="M 106.0420521117495 120.11202640906438 l 1.0735030545813105 3.5733425307546764 a24.73111051167017,24.73111051167017 0 0,0 -0.40763934696660126,0.11865787290247826 l -1.0120036952331024 -3.5912440979596734" fill="#ff1e03" stroke="none" /><path d="M 105.69591212413111 120.21278271476187 l 1.6825082011282844 5.970628047636654 a27.203163155204724,27.203163155204724 0 0,0 -0.45056029041848694,0.12280221070617568 l -1.5797665097751024 -5.998630752486972" fill="#ff4206" stroke="none" /><path d="M 105.3480935250658 120.30758222061773 l 5.045253059611704 19.1576476461539 a40.8108566642058,40.8108566642058 0 0,0 -0.679004633210025,0.1726003225350221 l -4.715643133176282 -19.241433200524195" fill="#fff617" stroke="none" /><path d="M 104.9986988182912 120.39639698878246 l 1.8638668637371656 7.605212850174458 a28.8302785507411,28.8302785507411 0 0,0 -0.4816960829608518,0.11367896398832772 l -1.7330386270364346 -7.636087957809011" fill="#ff5908" stroke="none" /><path d="M 104.64783097203109 120.47920084513623 l 1.4618997567985486 6.441400067061879 a27.60520898404225,27.60520898404225 0 0,0 -0.46302819529822675,0.10091484007709002 l -1.3511091448811858 -6.465546365272688" fill="#ff4706" stroke="none" /><path d="M 104.29559338865022 120.5559693870025 l 1.2341994321484575 5.906091068054168 a27.033668862513487,27.033668862513487 0 0,0 -0.45507128342337183,0.09102700169927352 l -1.1326316631941271 -5.926407466416302" fill="#ff3f05" stroke="none" /><path d="M 103.94208987418118 120.62667999033965 l 1.4024764347365846 7.338349336673311 a28.471165313192117,28.471165313192117 0 0,0 -0.48084444913881813,0.08762587640445839 l -1.2762972520467093 -7.361343387009132" fill="#ff5407" stroke="none" /><path d="M 103.58742460773223 120.69131181640829 l 1.2755078108317077 7.356790099866842 a28.466544096768697,28.466544096768697 0 0,0 -0.48219953074058985,0.07934574928491978 l -1.1490307770380455 -7.3776018476474325" fill="#ff5407" stroke="none" /><path d="M 102.875027216393 120.80226474461374 l 0.6416319826237948 4.642529397651138 a25.686658810835368,25.686658810835368 0 0,0 -0.4373119145903984,0.05661878263326842 l -0.561842246142621 -4.652859776484802" fill="#ff2c04" stroke="none" /><path d="M 101.80034050326958 120.92268563240118 l 0.25796377604134585 2.9979301031434056 a24.009008177636435,24.009008177636435 0 0,0 -0.410932473511307,0.03180877236837444 l -0.20646230775480298 -3.0019166425068335" fill="#ff1402" stroke="none" /><path d="M 101.08105385017728 120.97215588758144 l 0.38394632171098403 7.448456069108657 a28.458345164404566,28.458345164404566 0 0,0 -0.488093467816594,0.020960833644976813 l -0.25602709329356044 -7.453949471179464" fill="#ff5307" stroke="none" /><line stroke="#e1ed5e" stroke-width="0.3" x1="101.45913802915013" x2="101.54496967792366" y1="184.9874750549273" y2="189.98673829345242" /><path d="M 101.47630435890484 185.9873277026323 a86.0,86.0 0 0,1 -42.54439059252881,-10.42667462771756" fill="none" id="id55" stroke="none" /><text fill="#e1ed5e" style="font-size:6.75px; font-family:Arial;" text-anchor="middle"><textPath startOffset="22.145653131862474" xlink:href="#id55">July</textPath></text><path d="M 96.05791012581884 120.62667999033965 l -1.410451728720779 7.380079444837085 a28.513650689988076,28.513650689988076 0 0,0 -0.4799845585358765,-0.0960103544587368 l 1.5369327727876134 -7.354779693715487" fill="#ff5407" stroke="none" /><path d="M 93.61358852112213 120.00534299687104 l -2.274041585212058 7.123402876838889 a28.477575387585894,28.477575387585894 0 0,0 -0.4644248598652579,-0.15266567608756612 l 2.3959891827250592 -7.083316279349302" fill="#ff5407" stroke="none" /><path d="M 93.27111125876986 119.89276391827306 l -1.4381380417752059 4.2515995801249735 a25.488244647623375,25.488244647623375 0 0,0 -0.4132666753914346,-0.14375560224474987 l 1.5109104892116623 -4.226285545311633" fill="#ff2904" stroke="none" /><path d="M 92.25597844496254 119.51999308798841 l -2.753604575170236 6.9408823170710106 a28.467140382758817,28.467140382758817 0 0,0 -0.4526892634994168,-0.1841047825107104 l 2.8723482998600938 -6.892590277981009" fill="#ff5407" stroke="none" /><line stroke="#e1ed5e" stroke-width="0.3" x1="58.13341422392154" x2="55.67067388415222" y1="173.97424548756322" y2="178.32567169271397" /><path d="M 57.64086615596768 174.84453072859336 a86.0,86.0 0 0,1 -31.369924170532247,-30.572349798747897" fill="none" id="id56" stroke="none" /><text fill="#e1ed5e" style="font-size:6.75px; font-family:Arial;" text-anchor="middle"><textPath startOffset="22.145653131862474" xlink:href="#id56">August</textPath></text><line stroke="#e1ed5e" stroke-width="0.3" x1="26.387840678322732" x2="22.057713659400534" y1="142.50000000000003" y2="145.00000000000006" /><path d="M 25.521815274538284 143.00000000000003 a86.0,86.0 0 0,1 -11.493303480769212,-40.785679425670985" fill="none" id="id57" stroke="none" /><text fill="#e1ed5e" style="font-size:6.75px; font-family:Arial;" text-anchor="middle"><textPath startOffset="21.40746469413373" xlink:href="#id57">September</textPath></text><path d="M 80.28708602549918 107.23885506374661 l -8.838570279810192 3.2456454337012555 a30.415653926969163,30.415653926969163 0 0,0 -0.17577326612282132,-0.4916691089057802 l 8.892983715976957 -3.093441368414554" fill="#ff6f0a" stroke="none" /><path d="M 80.16572619554312 106.89939002012753 l -7.058265518280627 2.455231139609101 a28.473103242660006,28.473103242660006 0 0,0 -0.1566218341715396,-0.46302462285203383 l 7.099372774024534 -2.3337048422829056" fill="#ff5407" stroke="none" /><path d="M 80.05021161711548 106.5578916946017 l -5.759681436483448 1.8933216899820076 a27.062886876029303,27.062886876029303 0 0,0 -0.14128796640673677,-0.4425825424254904 l 5.791334118667439 -1.7941701138651256" fill="#ff4006" stroke="none" /><path d="M 79.94057633289273 106.21446072829308 l -7.367643250325098 2.282514712239568 a28.713108353682777,28.713108353682777 0 0,0 -0.14182044107516667,-0.4720741237405587 l 7.4057400114038945 -2.1557029849082863" fill="#ff5708" stroke="none" /><path d="M 79.83685265289637 105.86919833188381 l -4.513206046260945 1.3137285038968722 a25.700522460105628,25.700522460105628 0 0,0 -0.11966837336287525,-0.4246608402480829 l 4.535092911698395 -1.2360597397457935" fill="#ff2c04" stroke="none" /><path d="M 79.73907114497094 105.5222062557868 l -14.42723915594881 3.932208187036672 a35.953510988698966,35.953510988698966 0 0,0 -0.15718621479834302,-0.596861660328911 l 14.492614851551885 -3.6839660223349586" fill="#ffb911" stroke="none" /><path d="M 79.64726062577567 105.17358676015961 l -7.231354074327589 1.8381819277039337 a28.46132659435516,28.46132659435516 0 0,0 -0.11630175398520057,-0.47455084433047867 l 7.261843354829083 -1.7137752587653554" fill="#ff5407" stroke="none" /><path d="M 79.56144815229197 104.8234425847677 l -8.722568978109253 2.0585025285098126 a29.9621784314839,29.9621784314839 0 0,0 -0.11384078109064621,-0.5016034865191609 l 8.756620620757566 -1.9084647080516255" fill="#ff6809" stroke="none" /><path d="M 79.48165901384964 104.47187691870673 l -7.326314325084925 1.5967361080338787 a28.49829632574252,28.49829632574252 0 0,0 -0.10007283850789475,-0.4788847590356194 l 7.352644874417187 -1.4707348977128503" fill="#ff5407" stroke="none" /><path d="M 79.34024301695615 103.76489593502545 l -14.73631169551232 2.685446883292831 a35.979002214776536,35.979002214776536 0 0,0 -0.1055130198973485,-0.6085710597740025 l 14.780239532901904 -2.432082790598236" fill="#ffb911" stroke="none" /><path d="M 79.2786578344484 103.40968896794605 l -4.462961004635424 0.7343785349569184 a25.522978306547788,25.522978306547788 0 0,0 -0.06742746441117328,-0.4329326907190262 l 4.474909961184864 -0.6576576623064423" fill="#ff2a04" stroke="none" /><path d="M 79.0935383218832 101.97986365728391 l -14.805874476953 1.4021317065771028 a35.87211795104776,35.87211795104776 0 0,0 -0.05279415295362988,-0.6135480835273357 l 14.827762252604371 -1.147762575674105" fill="#ffb811" stroke="none" /><path d="M 79.06263194458094 101.62068470465958 l -7.544449854201877 0.5839881331508368 a28.567018286103696,28.567018286103696 0 0,0 -0.033649279701110875,-0.48925314185239593 l 7.553363095068054 -0.4543915671440975" fill="#ff5507" stroke="none" /><path d="M 79.03789590574601 101.26102812881392 l -3.3468655608492863 0.20133912114034472 a24.35291612243739,24.35291612243739 0 0,0 -0.02152149596808778,-0.41751127226704915 l 3.349828646273947 -0.14385605549656477" fill="#ff1902" stroke="none" /><line stroke="#e1ed5e" stroke-width="0.3" x1="15.003131293944662" x2="10.003315487706104" y1="100.72959589197737" y2="100.7725132973878" /><path d="M 14.003168132696942 100.73817937305945 a86.0,86.0 0 0,1 10.791469493833604,-42.45332614584628" fill="none" id="id58" stroke="none" /><text fill="#e1ed5e" style="font-size:6.75px; font-family:Arial;" text-anchor="middle"><textPath startOffset="22.145653131862435" xlink:href="#id58">October</textPath></text><path d="M 79.00077361379809 100.18025310272382 l -31.542068721020154 0.27075072427562014 a52.543230734283604,52.543230734283604 0 0,0 0.0,-0.9020076539988637 l 31.542068721020154 0.27075072427560853" fill="#80ff26" stroke="none" /><path d="M 79.03789590574601 98.7389718711861 l -5.036964219933681 -0.3030112595856584 a26.046070191379407,26.046070191379407 0 0,0 0.03067983827387792,-0.44607811520322016 l 5.031020420494739 0.3894327989432035" fill="#ff3104" stroke="none" /><path d="M 79.0935383218832 98.0201363427161 l -14.933356521514742 -1.414204388739676 a36.000170367425746,36.000170367425746 0 0,0 0.06354477075109415,-0.6147380138477887 l 14.906879358281984 1.6703469248703775" fill="#ffb911" stroke="none" /><path d="M 79.17382384314186 97.30363454192245 l -9.427750579952015 -1.2206110627169617 a30.506438468964735,30.506438468964735 0 0,0 0.0716980961340266,-0.5187717072591693 l 9.40540796726278 1.382271078176198" fill="#ff700a" stroke="none" /><path d="M 79.2786578344484 96.59031103205396 l -5.092373685128318 -0.8379481520124072 a26.160855244477254,26.160855244477254 0 0,0 0.07672004975192241,-0.4425008594092463 l 5.077238817884162 0.9252420443422462" fill="#ff3304" stroke="none" /><path d="M 79.34024301695615 96.23510406497455 l -14.76549628605995 -2.690765287880466 a36.00866744278494,36.00866744278494 0 0,0 0.11604000170628365,-0.6071703227646926 l 14.717129992071508 2.943838175678473" fill="#ffb911" stroke="none" /><path d="M 79.407916724674 95.88100663000787 l -8.046687774292591 -1.6095629154929787 a29.206087796013403,29.206087796013403 0 0,0 0.10255827485440723,-0.49077847169176736 l 8.017871788613817 1.7474578384701551" fill="#ff5e08" stroke="none" /><path d="M 79.48165901384962 95.52812308129327 l -5.407198668080572 -1.1784737827962148 a26.534130274291556,26.534130274291556 0 0,0 0.10081597113821371,-0.4442137706300208 l 5.386171835384697 1.271121887365244" fill="#ff3805" stroke="none" /><path d="M 79.56144815229197 95.17655741523228 l -14.531811524408235 -3.4294679516890114 a35.93100119257198,35.93100119257198 0 0,0 0.14682514700383054,-0.599096703979898 l 14.470798850888105 3.678420480277027" fill="#ffb811" stroke="none" /><path d="M 80.05021161711548 93.44210830539832 l -2.985698992534744 -0.9814585623636161 a24.142874382418082,24.142874382418082 0 0,0 0.13280256934839876,-0.3926071988084016 l 2.96841100161398 1.0325674356461794" fill="#ff1602" stroke="none" /><path d="M 80.16572619554312 93.10060997987247 l -14.176369516648807 -4.931277208789396 a36.00956187177012,36.00956187177012 0 0,0 0.2081006812166727,-0.5820946424525881 l 14.08962866538819 5.173906807622906" fill="#ffb911" stroke="none" /><path d="M 80.28708602549916 92.7611449362534 l -14.130769535884125 -5.189014305129447 a36.05338889204384,36.05338889204384 0 0,0 0.21832784817016312,-0.5791405561801172 l 14.039611003899527 5.430823141503709" fill="#ffba11" stroke="none" /><path d="M 80.83023694016515 91.42560881287825 l -13.630519099973156 -6.096757820214354 a35.93189562155716,35.93189562155716 0 0,0 0.25668297859240474,-0.5608986321266117 l 13.523851656525704 6.329845434555637" fill="#ffb811" stroke="none" /><path d="M 80.9802524753101 91.09779779509293 l -13.61539141475828 -6.3726906635218405 a36.03296609688228,36.03296609688228 0 0,0 0.26702271056678123,-0.5579747661056518 l 13.503989446231595 6.60547793169258" fill="#ffba11" stroke="none" /><path d="M 81.1358732173502 90.77261029715801 l -5.372590938204135 -2.628003451840843 a26.980897552387983,26.980897552387983 0 0,0 0.20708492424375602,-0.4143085691787632 l 5.326686100748632 2.719843877183376" fill="#ff3f05" stroke="none" /><line stroke="#e1ed5e" stroke-width="0.3" x1="26.387840678322718" x2="22.05771365940052" y1="57.49999999999999" y2="54.99999999999999" /><path d="M 25.521815274538284 56.99999999999999 a86.0,86.0 0 0,1 29.574782752854787,-30.34633250058573" fill="none" id="id59" stroke="none" /><text fill="#e1ed5e" style="font-size:6.75px; font-family:Arial;" text-anchor="middle"><textPath startOffset="21.40746469413373" xlink:href="#id59">November</textPath></text><path d="M 82.18462484594161 88.88188828441811 l -4.170815155466279 -2.6028971291661276 a25.916377988528595,25.916377988528595 0 0,0 0.23877907799602324,-0.37540037076043165 l 4.125518385844366 2.674111174605231" fill="#ff2f04" stroke="none" /><path d="M 82.37810715431573 88.57770195909679 l -12.847900011319068 -8.327853563412793 a36.31083536827758,36.31083536827758 0 0,0 0.34352740904998025,-0.5201442815759804 l 12.703048163348358 8.547177723327835" fill="#ffbd11" stroke="none" /><path d="M 83.2033758604659 87.39550010848427 l -12.203044566590648 -9.15739214249155 a36.256871486171846,36.256871486171846 0 0,0 0.3778449824794155,-0.4946112110524349 l 12.044047606756926 9.365524266784869" fill="#ffbd11" stroke="none" /><path d="M 83.8745106332314 86.54754324733833 l -24.149314560228 -20.14621710627753 a52.44931569083991,52.44931569083991 0 0,0 0.5827004995716454,-0.6864197233158327 l 23.79991949714924 20.557803612042918" fill="#81ff25" stroke="none" /><line stroke="#e1ed5e" stroke-width="0.3" x1="56.869717070023135" x2="54.33264160355391" y1="26.7553504044142" y2="22.446841604673864" /><path d="M 56.362301976729285 25.89364864446614 a86.0,86.0 0 0,1 42.16139366436587,-11.88097634709845" fill="none" id="id60" stroke="none" /><text fill="#e1ed5e" style="font-size:6.75px; font-family:Arial;" text-anchor="middle"><textPath startOffset="22.145653131862474" xlink:href="#id60">December</textPath></text><path d="M 89.97174638481275 81.54914285379989 l -2.165792975101206 -3.984815135839572 a25.53535124084275,25.53535124084275 0 0,0 0.3869349694121266,-0.20602107701313044 l 2.0970691899025176 4.021406680575278" fill="#ff2a04" stroke="none" /><path d="M 91.26138138417902 80.90454125486306 l -6.229596899978857 -13.61279348969545 a35.97050513941734,35.97050513941734 0 0,0 0.5636862444712061,-0.25212968735239777 l 5.994997252652031 13.717726927957694" fill="#ffb911" stroke="none" /><path d="M 91.5904679813234 80.7573450057729 l -6.062334637775172 -13.871808042966268 a36.13865778863081,36.13865778863081 0 0,0 0.5705862549108993,-0.24354934306547082 l 5.823313307693842 13.973832035691142" fill="#ffbb11" stroke="none" /><path d="M 92.25597844496254 80.48000691201159 l -5.510177640629334 -13.889247168831318 a35.94233062638423,35.94233062638423 0 0,0 0.5754670717723189,-0.22260302580224112 l 5.270938306363486 13.9817900827716" fill="#ffb911" stroke="none" /><path d="M 92.93061703081487 80.22567764915836 l -5.057495350512851 -14.146714612131383 a36.02357459253791,36.02357459253791 0 0,0 0.5840866294793045,-0.20317564948679326 l 4.813902948988542 14.231448694186762" fill="#ffba11" stroke="none" /><path d="M 93.95794788825049 79.88797359093562 l -4.306836438762329 -14.336057782002108 a35.96901442444205,35.96901442444205 0 0,0 0.5928721051200738,-0.17257642918981567 l 4.060104321260631 14.407877905494443" fill="#ffb911" stroke="none" /><path d="M 96.41257539226777 79.30868818359171 l -10.762273823196677 -62.07393544922487 a84.0,84.0 0 0,0 1.4228899877877086,-0.23413600601732654 l 9.695106332355897 62.24953745373786" fill="#4dd2ff" stroke="none" /><path d="M 97.48249496171623 79.15144685158666 l -0.8958845269053047 -7.419209054198915 a28.473103242660006,28.473103242660006 0 0,0 0.48575669818375933,-0.05443005122300419 l 0.7683919271207462 7.43349486592889" fill="#ff5407" stroke="none" /></svg>