<?xml version="1.0" encoding="utf-8" ?>
<svg baseProfile="full" height="200mm" version="1.1" viewBox="0,0,200,200" width="200mm" xmlns="http://www.w3.org/2000/svg" xmlns:ev="http://www.w3.org/2001/xml-events" xmlns:xlink="http://www.w3.org/1999/xlink"><defs /><rect fill="#1a1a1a" height="200" width="200" x="0" y="0" /><text alignment-baseline="middle" fill="#e1ed5e" style="dominant-baseline: central; font-size:9.0px; font-family:Arial;" text-anchor="middle" x="100.0" y="100.0">2022</text><line stroke="#e1ed5e" stroke-width="0.3" x1="100.0" x2="100.0" y1="15.0" y2="10.0" /><path d="M 100.0 14.0 a86.0,86.0 0 0,1 42.46469731375804,11.215312516191453" fill="none" id="id73" stroke="none" /><text fill="#e1ed5e" style="font-size:6.75px; font-family:Arial;" text-anchor="middle"><textPath startOffset="22.20632615414155" xlink:href="#id73">January</textPath></text><path d="M 100.0 79.0 l 0.0 -58.49625911109683 a79.49625911109683,79.49625911109683 0 0,0 1.3683974211358279,0.011778228622200074 l -1.0069169418632995 58.48759225908319" fill="#47feff" stroke="none" /><path d="M 101.44485096284872 79.0497635885617 l 1.7948671023407254 -26.025445591296343 a47.087264443413595,47.087264443413595 0 0,0 0.8081291457855266,0.06272637509842535 l -2.242586437488593 25.99069395400945" fill="#d0ff1d" stroke="none" /><path d="M 102.52436894288641 79.15227682838746 l 1.3826992075455722 -11.419143144566593 a32.502551336753484,32.502551336753484 0 0,0 0.5548421876258924,0.0720344400312494 l -1.5790561236793108 11.393650381371206" fill="#ff6c09" stroke="none" /><path d="M 102.88285421437855 79.19881850522331 l 0.7549106138033685 -5.44704363187583 a26.49910668767137,26.49910668767137 0 0,0 0.4512810734496066,0.06650709939272557 l -0.848560667681631 5.433242048322135" fill="#ff1302" stroke="none" /><path d="M 103.59715602781102 79.31037775812273 l 2.9864644092760293 -17.177131041583547 a38.434815757202756,38.434815757202756 0 0,0 0.6508384763224954,0.1189365714930891 l -3.281698006701425 17.12317898873972" fill="#ffbe11" stroke="none" /><path d="M 103.95276090670814 79.375362276772 l 3.445796522910727 -17.979408982816114 a39.30662888269362,39.30662888269362 0 0,0 0.6634090288874427,0.13307361016670752 l -3.7547719612652948 17.917431416572196" fill="#ffca12" stroke="none" /><path d="M 104.307194497241 79.44645832069477 l 4.756135483147278 -22.695847366054128 a44.188840255547035,44.188840255547035 0 0,0 0.7431243070220911,0.16241819059647875 l -5.146102514322897 22.61061567736178" fill="#f4ff19" stroke="none" /><path d="M 104.66035177308747 79.52364482259891 l 4.504356734657767 -19.790954167278873 a41.297071129707106,41.297071129707106 0 0,0 0.691777686726418,0.16372142800749678 l -4.844358108346709 19.710486827130506" fill="#ffe515" stroke="none" /><path d="M 107.76421540070413 80.48803036053334 l 1.958375693526676 -4.921523309528037 a26.296850672165856,26.296850672165856 0 0,0 0.41914190947616037,0.17097850890191776 l -2.042801472591224 4.887083914442539" fill="#ff1001" stroke="none" /><path d="M 110.05341064243156 81.56283822128135 l 2.0778283044951293 -3.810573143873068 a25.34025784346596,25.34025784346596 0 0,0 0.3811608109263961,0.21211557860648553 l -2.1431132044935604 3.7742421677064026" fill="#ff0100" stroke="none" /><line stroke="#e1ed5e" stroke-width="0.3" x1="143.23703022742887" x2="145.7803849466894" y1="26.81831364943548" y2="22.513508569990506" /><path d="M 143.74570117128098 25.957352633546492 a86.0,86.0 0 0,1 28.547481713284135,27.462654790039103" fill="none" id="id74" stroke="none" /><text fill="#e1ed5e" style="font-size:6.75px; font-family:Arial;" text-anchor="middle"><textPath startOffset="19.985693538727396" xlink:href="#id74">February</textPath></text><path d="M 111.2981086023043 82.29822771554956 l 7.784382245703044 -12.196498258164196 a35.46897289750102,35.46897289750102 0 0,0 0.511822302357452,0.33290346271685683 l -7.9931715738447755 12.06069587128781" fill="#ff960d" stroke="none" /><line stroke="#e1ed5e" stroke-width="0.3" x1="172.23445277983987" x2="176.4835382374775" y1="55.19839476539836" y2="52.563006222186495" /><path d="M 173.08426987136738 54.67131705675599 a86.0,86.0 0 0,1 12.851231095245387,41.99856678651699" fill="none" id="id75" stroke="none" /><text fill="#e1ed5e" style="font-size:6.75px; font-family:Arial;" text-anchor="middle"><textPath startOffset="22.20632615414155" xlink:href="#id75">March</textPath></text><path d="M 118.56541770881063 90.18545643968196 l 21.81661902705139 -11.533279839873675 a45.67754869585586,45.67754869585586 0 0,0 0.3614846528390797,0.6982732910310069 l -22.011913113050586 11.156033826582322" fill="#e1ff1b" stroke="none" /><path d="M 118.89224826269711 90.83032412892265 l 5.483141667928277 -2.66133660488552 a27.0948794143178,27.0948794143178 0 0,0 0.20003995438265004,0.4213351604785939 l -5.528139816152683 2.5665590287663855" fill="#ff1c02" stroke="none" /><path d="M 119.04729006885535 91.15688171328212 l 15.549336679994978 -7.219117420069827 a38.14343978064475,38.14343978064475 0 0,0 0.27135912029887743,0.5979038515641137 l -15.671298117257201 6.95039155966365" fill="#ffbb11" stroke="none" /><path d="M 119.196687751892 91.48605970444005 l 13.245272828108483 -5.87442289599171 a35.48951678462676,35.48951678462676 0 0,0 0.2428653935783323,0.5605668131270863 l -13.344428931529496 5.6455569382780215" fill="#ff960d" stroke="none" /><path d="M 119.34039704204932 91.81776055985345 l 13.373475635610028 -5.657845573677659 a35.52105599162261,35.52105599162261 0 0,0 0.23338739932119135,0.5651660995787227 l -13.468884721817417 5.426804903645634" fill="#ff960d" stroke="none" /><path d="M 119.47837535516314 92.15188598940014 l 13.447950717467478 -5.418370296044073 a35.49848665083659,35.49848665083659 0 0,0 0.22348232879423574,0.5687381503984612 l -13.539226596143415 5.186083140749828" fill="#ff960d" stroke="none" /><path d="M 119.85752413597 93.16781622104841 l 20.28398906650197 -6.978913389386471 a42.451001015023266,42.451001015023266 0 0,0 0.23178793611809065,0.6930164264677202 l -20.401114296391828 6.628723859996437" fill="#fff417" stroke="none" /><path d="M 120.67395015179393 96.31383870115 l 15.060443182010834 -2.6852740958282886 a36.29796214560302,36.29796214560302 0 0,0 0.10437935069439895,0.6160528363746028 l -15.104434394225455 2.4256354711378476" fill="#ffa10e" stroke="none" /><path d="M 120.78858239683441 97.02765380044208 l 5.9252458165092845 -0.8471901329274691 a26.985504916662457,26.985504916662457 0 0,0 0.061789097325598265,0.46040054484590365 l -5.93895091289272 0.7450712460169012" fill="#ff1a02" stroke="none" /><path d="M 120.83666639777658 97.38593545837742 l 40.23046381953582 -5.047113917171532 a61.545820722090305,61.545820722090305 0 0,0 0.12282683907462892,1.0523053481048836 l -40.31138101161404 4.353864830741795" fill="#30ff31" stroke="none" /><path d="M 120.91429891909075 98.10471618934814 l 20.644764209580455 -1.870858188099567 a41.72936081091632,41.72936081091632 0 0,0 0.0586705198964215,0.715928949713747 l -20.67390921329637 1.5152153211780512" fill="#ffea16" stroke="none" /><path d="M 120.94382443527127 98.46500227214037 l 9.30514932207453 -0.6819854277771983 a30.330107610837324,30.330107610837324 0 0,0 0.03368000877415264,0.5210148286114092 l -9.3155099218531 0.5217115349127538" fill="#ff4c07" stroke="none" /><path d="M 120.96714384426684 98.82574320788733 l 17.33444646708109 -0.9708089786892559 a38.361610074909635,38.361610074909635 0 0,0 0.031248987177869184,0.6596167300051954 l -17.348589062492454 0.6722811420610607" fill="#ffbd11" stroke="none" /><line stroke="#e1ed5e" stroke-width="0.3" x1="184.98032266829074" x2="189.97916517819016" y1="98.17113171792111" y2="98.06355123074" /><path d="M 185.9800911702706 98.14961562048488 a86.0,86.0 0 0,1 -9.607161424134198,41.387399972396054" fill="none" id="id76" stroke="none" /><text fill="#e1ed5e" style="font-size:6.75px; font-family:Arial;" text-anchor="middle"><textPath startOffset="21.466115282336823" xlink:href="#id76">April</textPath></text><path d="M 120.99980553446 99.90962569577887 l 61.023460180558565 -0.2626192297797215 a82.0240252791314,82.0240252791314 0 0,0 -0.006076428497743718,1.4119479856184458 l -61.01893945477132 -0.787838234042409" fill="#4ae5ff" stroke="none" /><path d="M 120.9764740272857 100.99374915477107 l 14.493516250553707 0.6866225231615881 a35.50977132122961,35.50977132122961 0 0,0 -0.034180097978638586,0.6103086102996671 l -14.47954980168754 -0.9360028497966785" fill="#ff960d" stroke="none" /><path d="M 120.92983693683757 101.71520430193887 l 14.451199317617787 1.1842786598173705 a35.49964405292818,35.49964405292818 0 0,0 -0.0551519152022335,0.6085967885216762 l -14.42867280613848 -1.4328568368876171" fill="#ff960d" stroke="none" /><path d="M 120.8583938346157 102.4346265915055 l 28.992850332790283 3.3840939500628173 a50.18968074992307,50.18968074992307 0 0,0 -0.10754570881566942,0.857245114427672 l -28.930303114727767 -3.8826568187778845" fill="#abff21" stroke="none" /><path d="M 120.70491114924044 103.5080841355445 l 28.565833558477667 4.839979597245287 a49.972957208272675,49.972957208272675 0 0,0 -0.15099818674744692,0.8468780209921667 l -28.47828892939103 -5.3309763689706715" fill="#adff20" stroke="none" /><path d="M 120.49622156327973 104.57218783832717 l 19.79264620141268 4.415237997453159 a41.27913139728746,41.27913139728746 0 0,0 -0.16067299234726784,0.6921750458291354 l -19.71371264313486 -4.755281700630858" fill="#ffe415" stroke="none" /><path d="M 120.32669344350535 105.2749913415812 l 43.6233775566883 11.320726587510123 a66.06836939498183,66.06836939498183 0 0,0 -0.29514289647168085,1.0983365136235845 l -43.42204658387484 -12.069954034309255" fill="#35ff6a" stroke="none" /><path d="M 120.23288151984713 105.62410040840565 l 13.974998062386033 3.884606956900098 a35.50485236234034,35.50485236234034 0 0,0 -0.16874503295397777,0.5874235969813635 l -13.906060392545957 -4.124588029386044" fill="#ff960d" stroke="none" /><path d="M 120.13307415673323 105.97154293290107 l 25.02724695396086 7.423172363765077 a47.10491482531036,47.10491482531036 0 0,0 -0.2372589938998474,0.7753761197782152 l -24.89576118755488 -7.852875456095349" fill="#d0ff1d" stroke="none" /><path d="M 119.79798401119884 107.00284435728193 l 10.927631709665878 3.8652674945692564 a32.59109259676019,32.59109259676019 0 0,0 -0.1916290115729547,0.527280738463164 l -10.859478437087697 -4.052796030038551" fill="#ff6d0a" stroke="none" /><path d="M 119.67450827220406 107.3425965602758 l 43.64746408240479 16.289389051161468 a67.58803834124072,67.58803834124072 0 0,0 -0.41616761850361034,1.0864823289514647 l -43.360602184307666 -17.038294946946078" fill="#37ff7c" stroke="none" /><path d="M 119.41010516605496 108.01547362559984 l 16.09504759124903 6.646508525674903 a38.41340381850833,38.41340381850833 0 0,0 -0.2576423922333577,0.6089905089073377 l -15.978254217823366 -6.922573560248404" fill="#ffbe11" stroke="none" /><line stroke="#e1ed5e" stroke-width="0.3" x1="174.80103733775053" x2="179.2010983576182" y1="140.37084112569926" y2="142.7455964860345" /><path d="M 175.68104954172406 140.8457921977663 a86.0,86.0 0 0,1 -30.038265399797805,32.042727171017184" fill="none" id="id77" stroke="none" /><text fill="#e1ed5e" style="font-size:6.75px; font-family:Arial;" text-anchor="middle"><textPath startOffset="22.206326154141568" xlink:href="#id77">May</textPath></text><path d="M 117.35343817320211 111.8261652097733 l 11.973712138476383 8.159944819612688 a35.48980613514966,35.48980613514966 0 0,0 -0.34837316389006684,0.5018575254819719 l -11.83147806742418 -8.36484360728168" fill="#ff960d" stroke="none" /><path d="M 116.93607887273984 112.41649034213515 l 14.853537549995217 10.889699258127111 a39.41773948348635,39.41773948348635 0 0,0 -0.4058877169358069,0.5437529260582449 l -14.663888566364319 -11.143765063694671" fill="#ffcc13" stroke="none" /><path d="M 116.71984013943494 112.70617746262583 l 11.537226472122244 8.767670369977834 a35.49067418671835,35.49067418671835 0 0,0 -0.3738235801160368,0.4832173692256912 l -11.384596074788139 -8.96496573331678" fill="#ff960d" stroke="none" /><path d="M 116.27256486870786 113.27417163493432 l 7.436027546225296 6.065860343903614 a30.596310091903234,30.596310091903234 0 0,0 -0.33641954231990495,0.40523901075805824 l -7.330512004011847 -6.192960611775443" fill="#ff5007" stroke="none" /><path d="M 115.80600337817218 113.82643327865902 l 21.788689884801638 19.05983819651952 a49.948651764349265,49.948651764349265 0 0,0 -0.5716531630265838,0.6422583887139403 l -21.457377872126717 -19.43207075497433" fill="#adff20" stroke="none" /><path d="M 115.32070863581623 114.36230785411682 l 4.965654955108947 4.6550239194465135 a27.806392350123318,27.806392350123318 0 0,0 -0.33035774862580225,0.34637877868127975 l -4.88479065510418 -4.7398098147103" fill="#ff2603" stroke="none" /><path d="M 115.07121518719521 114.62390073753431 l 11.769141282065611 11.419832557441918 a37.39894088522888,37.39894088522888 0 0,0 -0.452276745276081,0.45815395513239554 l -11.570823911733996 -11.62072700655498" fill="#ffb010" stroke="none" /><path d="M 114.81725581225074 114.88116024355365 l 10.234386093891723 10.278525348241633 a35.50485236234034,35.50485236234034 0 0,0 -0.43679429993814384,0.42749515550319195 l -10.055941841577786 -10.453170606667396" fill="#ff960d" stroke="none" /><path d="M 114.55890576462653 115.13401014063108 l 5.368491602950483 5.5805571979419675 a28.743598693789068,28.743598693789068 0 0,0 -0.3595196841671227,0.33994830146725613 l -5.2716360843925525 -5.672140136155146" fill="#ff3505" stroke="none" /><path d="M 114.29624159901734 115.38237550388516 l 13.044354425848564 14.035378221221507 a40.161080976810624,40.161080976810624 0 0,0 -0.5104290765051673,0.4662648592308767 l -12.800825799876533 -14.257835847038965" fill="#ffd614" stroke="none" /><path d="M 113.20401910651253 116.32954008644616 l 9.112834482674876 11.269931888586292 a35.49327834142443,35.49327834142443 0 0,0 -0.47838602349703374,0.38005878951251165 l -8.91749096646049 -11.425124592103929" fill="#ff960d" stroke="none" /><path d="M 112.63410532772338 116.77436683061366 l 8.7343018253865 11.596577599114632 a35.51787313587074,35.51787313587074 0 0,0 -0.4915251310500359,0.36361854124453474 l -8.533391723917902 -11.745206089098934" fill="#ff960d" stroke="none" /><path d="M 112.04921762599082 117.19931262002967 l 14.956693413021057 21.349506146988045 a47.06729925733366,47.06729925733366 0 0,0 -0.6675557639614909,0.45915094155115543 l -14.586980764436683 -21.603797877904295" fill="#d0ff1d" stroke="none" /><path d="M 111.1453310114006 117.79835938074945 l 5.833857407034857 9.316285949716725 a31.99213701436189,31.99213701436189 0 0,0 -0.46924969709709285,0.2882514901868575 l -5.672628510005455 -9.415325906731962" fill="#ff6409" stroke="none" /><line stroke="#e1ed5e" stroke-width="0.3" x1="143.8653032363475" x2="146.44561519142675" y1="172.8068346515853" y2="177.08958963109032" /><path d="M 144.38136562736335 173.6633856474863 a86.0,86.0 0 0,1 -40.68145358897372,12.25698825130547" fill="none" id="id78" stroke="none" /><text fill="#e1ed5e" style="font-size:6.75px; font-family:Arial;" text-anchor="middle"><textPath startOffset="21.466115282336833" xlink:href="#id78">June</textPath></text><path d="M 110.8373102113329 117.98757091392108 l 11.096186384966842 18.41724889123831 a42.50163735653037,42.50163735653037 0 0,0 -0.6298988132977424,0.37215532176057686 l -10.777519700640717 -18.605522785292635" fill="#fff417" stroke="none" /><path d="M 110.5260780823613 118.17145234162733 l 14.37162164790996 24.810117861895197 a49.672032664459024,49.672032664459024 0 0,0 -0.7435459389334843,0.4222047894834163 l -13.942426942055276 -25.05382581717324" fill="#b1ff20" stroke="none" /><path d="M 110.21172684928248 118.3499491758327 l 6.381596451311594 11.467401377904073 a34.123492966026575,34.123492966026575 0 0,0 -0.5157151546084504,0.28120902154193406 l -6.183258484834496 -11.575551051205778" fill="#ff830c" stroke="none" /><path d="M 109.89434966115114 118.52300852407294 l 4.97428182860007 9.312250715584723 a31.557532528969496,31.557532528969496 0 0,0 -0.4813411791830941,0.2518149553595438 l -4.81324974689048 -9.396495089888983" fill="#ff5e08" stroke="none" /><path d="M 109.57404056367764 118.69057910512821 l 21.99383517555062 42.93668001923263 a69.24196593012414,69.24196593012414 0 0,0 -1.0654890816515736,0.534258344730598 l -21.251492186216282 -43.30890620487253" fill="#3aff90" stroke="none" /><path d="M 108.92500713936063 119.00905698771935 l 5.98969805680692 12.757246008122657 a35.09339591877976,35.09339591877976 0 0,0 -0.5490144617392466,0.25202561192559114 l -5.769215599300254 -12.858458690382323" fill="#ff900d" stroke="none" /><path d="M 108.59647513512805 119.15986991738527 l 6.303176301491843 14.048553169127551 a36.39778807600274,36.39778807600274 0 0,0 -0.5738359581025257,0.2515528205478302 l -6.060419668731563 -14.154970542969837" fill="#ffa30f" stroke="none" /><path d="M 108.2653958097858 119.30500536409082 l 13.122234999347112 30.648842823876965 a54.33983529984521,54.33983529984521 0 0,0 -0.863042188509796,0.3607517047918887 l -12.592721351339856 -30.870179571688826" fill="#7bff26" stroke="none" /><path d="M 107.59598834532513 119.57807347666477 l 10.958117381086684 28.243701477618533 a51.294999747392396,51.294999747392396 0 0,0 -0.8259222352708357,0.31229311802304976 l -10.470324925055573 -28.428142845748212" fill="#9eff22" stroke="none" /><path d="M 107.2578585660854 119.70592522655815 l 5.033056190574229 13.665329525154359 a35.56272246691988,35.56272246691988 0 0,0 -0.5762523250593475,0.2066235816905881 l -4.797084304885146 -13.749940647884907" fill="#ff970d" stroke="none" /><path d="M 106.57524785965236 119.94407469862006 l 6.6139934700392855 20.061598077859063 a42.123745573625925,42.123745573625925 0 0,0 -0.6905860221818756,0.22110383631483674 l -6.267686102766469 -20.17247476083361" fill="#ffef16" stroke="none" /><path d="M 106.2309692047433 120.05430185196036 l 6.245449914329994 20.100907847197973 a42.048803788195414,42.048803788195414 0 0,0 -0.6930544421879155,0.20881161821893937 l -5.898520497701832 -20.205434834522638" fill="#ffee16" stroke="none" /><path d="M 105.88484417918355 120.15858648285463 l 9.41411817752668 32.24814619778333 a54.59417440947233,54.59417440947233 0 0,0 -0.9043624609579316,0.25558186489917 l -8.857624548464141 -32.40541685602101" fill="#78ff26" stroke="none" /><path d="M 105.53697534728816 120.25689768951611 l 5.723559532780458 20.93951166536673 a42.70765492883355,42.70765492883355 0 0,0 -0.7107968363207611,0.18772790480422696 l -5.362272253648199 -21.03493091947454" fill="#fff717" stroke="none" /><path d="M 105.18746579009965 120.34920634021253 l 7.84734972045581 30.783304439352587 a52.76779390894185,52.76779390894185 0 0,0 -0.8820933677657727,0.21679708857181418 l -7.316303067946826 -30.913822786238434" fill="#8dff24" stroke="none" /><path d="M 104.83641907484287 120.43548508189849 l 4.461152280569271 18.84985760474298 a40.37057075538858,40.37057075538858 0 0,0 -0.6776101308944884,0.15422185968240382 l -4.136022000281921 -18.92385619800307" fill="#ffd814" stroke="none" /><path d="M 104.13013068566511 120.58985236759428 l 3.076072788874356 15.335080028998531 a36.64055316471393,36.64055316471393 0 0,0 -0.6194563330228892,0.11872028054233515 l -2.8116488412797627 -15.385757507889336" fill="#ffa60f" stroke="none" /><path d="M 103.7750983002368 120.6578951692458 l 3.8756790462085164 21.2082878586753 a42.55950746110991,42.55950746110991 0 0,0 -0.7217910645674885,0.12549262854465568 l -3.510039010168978 -21.27185906574096" fill="#fff517" stroke="none" /><path d="M 103.41894727170886 120.7198165907248 l 5.749614430682245 34.844338623443164 a56.31552067019093,56.31552067019093 0 0,0 -0.9578040145526402,0.14958928883868108 l -5.148974552521087 -34.938146219628955" fill="#65ff29" stroke="none" /><path d="M 103.06178313531738 120.77559828337769 l 0.8057309237826829 5.467252661991243 a26.526305636823757,26.526305636823757 0 0,0 -0.4523005538088668,0.0626847353858764 l -0.7115017787869855 -5.480311962869722" fill="#ff1302" stroke="none" /><path d="M 102.70371172650421 120.8252237178851 l 2.029301868991228 15.630610689219456 a36.76179103380808,36.76179103380808 0 0,0 -0.628228508645208,0.07606972345158405 l -1.7599459372946398 -15.66322594139639" fill="#ffa80f" stroke="none" /><path d="M 102.34483914955558 120.86867818915974 l 0.9710670440645401 8.64233508150111 a29.696719316214192,29.696719316214192 0 0,0 -0.5084748692315896,0.05270549922416102 l -0.822159578227348 -8.657769949181029" fill="#ff4306" stroke="none" /><path d="M 101.62511606390274 120.93702456842531 l 0.980224234898512 12.628623483882077 a33.66660849037106,33.66660849037106 0 0,0 -0.5781634638049544,0.039873537508458 l -0.7626980103146271 -12.64362536590682" fill="#ff7c0b" stroke="none" /><path d="M 100.90346689309514 120.98055641714683 l 0.9887848010859438 22.961832317430922 a43.983112033766744,43.983112033766744 0 0,0 -0.7566763451339819,0.026061463280183796 l -0.5933881042773097 -22.975450579137203" fill="#f7ff19" stroke="none" /><line stroke="#e1ed5e" stroke-width="0.3" x1="102.19456741930631" x2="102.32365962044197" y1="184.97166512339345" y2="189.96999836594603" /><path d="M 102.22038585953345 185.97133177190398 a86.0,86.0 0 0,1 -42.740103519485714,-10.115201625700543" fill="none" id="id79" stroke="none" /><text fill="#e1ed5e" style="font-size:6.75px; font-family:Arial;" text-anchor="middle"><textPath startOffset="22.20632615414155" xlink:href="#id79">July</textPath></text><path d="M 100.54218724476979 120.99299961872073 l 0.1106318070784676 4.283563485162317 a25.284991893592494,25.284991893592494 0 0,0 -0.43519120528959276,0.007492211264483005 l -0.03688091189620689 -4.284833173705961" fill="#ff0000" stroke="none" /><path d="M 99.81925306533755 120.99922214144158 l -0.04978387661591712 5.783902703922084 a26.784116952725636,26.784116952725636 0 0,0 -0.4609933113021049,-0.0079364179188562 l 0.14933687781069 -5.782188808724068" fill="#ff1702" stroke="none" /><path d="M 99.09653310690486 120.98055641714683 l -1.2215469590955672 28.36709910166009 a49.393388110908504,49.393388110908504 0 0,0 -0.8491239261676805,-0.04389000794376725 l 1.7096589536767366 -28.34186928695412" fill="#b4ff20" stroke="none" /><path d="M 98.73552117531835 120.96189622390904 l -0.9097285409488712 15.08102381398082 a36.108437553105006,36.108437553105006 0 0,0 -0.6200974872256284,-0.04276555327981233 l 1.1691887889534296 -15.063129916184723" fill="#ff9f0e" stroke="none" /><path d="M 98.01472825383883 120.90594882070398 l -1.9167949203195547 20.18485206444511 a41.27565919101268,41.27565919101268 0 0,0 -0.7067324570811859,-0.0732557088311346 l 2.263959974006334 -20.148866987158215" fill="#ffe415" stroke="none" /><path d="M 97.65516085044442 120.86867818915974 l -1.852380819283877 16.4858810075454 a37.589622879818485,37.589622879818485 0 0,0 -0.642375468066996,-0.07778272322171674 l 2.1358837104022625 -16.451552755598335" fill="#ffb310" stroke="none" /><path d="M 96.58105272829116 120.7198165907248 l -4.305415451555257 26.092072036697484 a47.444901689715195,47.444901689715195 0 0,0 -0.8046452635809306,-0.13989789307420383 l 4.753909686608238 -26.014095565102277" fill="#ccff1d" stroke="none" /><path d="M 96.22490169976321 120.6578951692458 l -3.0982025369657364 16.95382163100627 a38.23458519535753,38.23458519535753 0 0,0 -0.6464055232271209,-0.12388515698458616 l 3.389575674764552 -16.897979275673215" fill="#ffbc11" stroke="none" /><path d="M 95.86986931433489 120.58985236759428 l -4.184572101681611 20.86125799704646 a42.27681200023883,42.27681200023883 0 0,0 -0.7122808128204315,-0.14926536970314774 l 4.543044375931429 -20.78613664661677" fill="#fff116" stroke="none" /><path d="M 95.51606077576429 120.51570834832081 l -5.673847433234585 25.959985925757117 a47.57279462083599,47.57279462083599 0 0,0 -0.7984976924245856,-0.1817354751105389 l 6.1198652750520335 -25.85847371706889" fill="#caff1d" stroke="none" /><path d="M 95.16358092515715 120.4354850818985 l -14.068906275689928 59.44582548914696 a82.08797174469179,82.08797174469179 0 0,0 -1.3722244210983903,-0.3372593766516891 l 15.090083981531528 -59.19484485418124" fill="#4ae4ff" stroke="none" /><path d="M 94.11515582081647 120.15858648285463 l -5.99209246353243 20.525966442180064 a42.38271429161939,42.38271429161939 0 0,0 -0.6985580032132629,-0.21046979600947704 l 6.344525441185938 -20.41978127706486" fill="#fff316" stroke="none" /><path d="M 93.76903079525671 120.05430185196036 l -5.513544484133223 17.745278740079105 a39.58209058049226,39.58209058049226 0 0,0 -0.6489175668352588,-0.20776291275930023 l 5.818183396059422 -17.647742980660098" fill="#ffce13" stroke="none" /><path d="M 93.08242187328487 119.8279376855182 l -3.4574387743726995 9.910098493142671 a31.495900867592283,31.495900867592283 0 0,0 -0.5103542374088988,-0.1829948720007934 l 3.627512572411325 -9.84911608010192" fill="#ff5d08" stroke="none" /><path d="M 92.7421414339146 119.70592522655815 l -9.354990312933845 25.39988040870305 a48.06787336551402,48.06787336551402 0 0,0 -0.7739609242668538,-0.2926457963539869 l 9.79082145796098 -25.23508636224243" fill="#c4ff1e" stroke="none" /><path d="M 92.40401165467489 119.57807347666478 l -10.093190140997839 26.01441829699734 a48.90380702616555,48.90380702616555 0 0,0 -0.782178956257386,-0.31124514902875233 l 10.539490173297082 -25.83682630356252" fill="#baff1f" stroke="none" /><path d="M 91.7346041902142 119.30500536409082 l -8.86382642557636 20.702725027339763 a43.52044054765328,43.52044054765328 0 0,0 -0.6861294331007067,-0.30077897998599495 l 9.218876533334809 -20.547081494059316" fill="#fdff18" stroke="none" /><path d="M 91.40352486487194 119.15986991738527 l -5.461370908751028 12.172332791922068 a34.34137390976856,34.34137390976856 0 0,0 -0.5372495427941294,-0.24662491467072287 l 5.670088447312577 -12.076520806917271" fill="#ff860c" stroke="none" /><path d="M 91.07499286063937 119.00905698771935 l -3.697092458575634 7.874306444416607 a29.699034120397375,29.699034120397375 0 0,0 -0.46088280916505137,-0.22125175620141668 l 3.8320879357409274 -7.809500411715628" fill="#ff4306" stroke="none" /><line stroke="#e1ed5e" stroke-width="0.3" x1="58.666819895761336" x2="56.23545636021788" y1="174.27360380694188" y2="178.64263932499728" /><path d="M 58.180547188652646 175.14741091055294 a86.0,86.0 0 0,1 -31.652253787137756,-30.449443065178592" fill="none" id="id80" stroke="none" /><text fill="#e1ed5e" style="font-size:6.75px; font-family:Arial;" text-anchor="middle"><textPath startOffset="22.20632615414155" xlink:href="#id80">August</textPath></text><path d="M 89.4739219176387 118.17145234162733 l -6.153527194977581 10.622999875311477 a33.276563985504914,33.276563985504914 0 0,0 -0.49317789781280763,-0.2913781949910972 l 6.335472963818771 -10.51550310802663" fill="#ff770a" stroke="none" /><path d="M 89.1626897886671 117.98757091392108 l -12.794137338855384 21.2354770858591 a45.79184215240046,45.79184215240046 0 0,0 -0.6716590407788486,-0.41258784097183776 l 13.157775579566541 -21.012100778058883" fill="#e0ff1b" stroke="none" /><path d="M 88.8546689885994 117.79835938074946 l -5.563733024214187 8.884915105905314 a31.48316944458478,31.48316944458478 0 0,0 -0.45683307900024933,-0.29157248532700125 l 5.71584790526136 -8.787828191754508" fill="#ff5d08" stroke="none" /><path d="M 88.54995079064634 117.60387380957326 l -7.910683015887801 12.162276599253506 a35.50861391913801,35.50861391913801 0 0,0 -0.5095068469766975,-0.33767335561696266 l 8.118864561604461 -12.024305222545225" fill="#ff960d" stroke="none" /><path d="M 88.24862548938628 117.40417183066458 l -8.545678948433654 12.656431355659764 a36.27134189749643,36.27134189749643 0 0,0 -0.5144366414123154,-0.35383421284712635 l 8.76227247446886 -12.507456353447537" fill="#ffa10e" stroke="none" /><path d="M 87.95078237400918 117.19931262002967 l -4.961214679498144 7.081744632423982 a29.64666167575289,29.64666167575289 0 0,0 -0.41543820722303804,-0.2964041302851139 l 5.082380214570069 -6.995296240294649" fill="#ff4206" stroke="none" /><path d="M 87.36589467227662 116.77436683061367 l -20.988506048614802 27.866547773150494 a55.88641384473358,55.88641384473358 0 0,0 -0.7634384095037109,-0.5853720177236076 l 21.465073186612 -27.501136413599518" fill="#6aff28" stroke="none" /><path d="M 87.07902340077011 116.55440617244103 l -27.628750935216058 35.39806465140083 a65.90401829797591,65.90401829797591 0 0,0 -0.888268503764772,-0.7056942212380997 l 28.233976931698187 -34.9172365161576" fill="#35ff68" stroke="none" /><path d="M 86.79598089348748 116.32954008644616 l -4.70951373392405 5.824301880012474 a28.490127635730655,28.490127635730655 0 0,0 -0.37868788879556703,-0.31163435153853625 l 4.809071751264306 -5.742372409616757" fill="#ff3104" stroke="none" /><path d="M 85.70375840098266 115.38237550388516 l -7.9048933587427355 8.505454886178388 a32.61163648388593,32.61163648388593 0 0,0 -0.40790039458047095,-0.38569528293476124 l 8.050129587714023 -8.368124966497696" fill="#ff6d0a" stroke="none" /><path d="M 84.67929136418377 114.36230785411682 l -11.101003151142038 10.406569861494447 a36.21607594762296,36.21607594762296 0 0,0 -0.4224408519842728,-0.45847611174737074 l 11.27849041112204 -10.213942494945732" fill="#ffa00e" stroke="none" /><path d="M 84.43433777217949 114.09645910891817 l -19.488301475593115 17.648850452502305 a47.29212461362519,47.29212461362519 0 0,0 -0.5412496967720387,-0.6080997720720313 l 19.789210022013492 -17.31077651068941" fill="#cdff1d" stroke="none" /><path d="M 84.19399662182784 113.82643327865904 l -4.971585481726103 4.348935863645565 a27.605293736709395,27.605293736709395 0 0,0 -0.309780678312116,-0.360344914171658 l 5.045708669608998 -4.262713850312377" fill="#ff2303" stroke="none" /><path d="M 83.95833913139862 113.55231037782056 l -4.788427922656796 4.045358018800041 a27.268489728056437,27.268489728056437 0 0,0 -0.2998287311938212,-0.36116302158894925 l 4.857352653744154 -3.96233374009733" fill="#ff1e03" stroke="none" /><path d="M 83.50135304334701 112.99209946851258 l -17.87549806607059 14.076320896723221 a43.752499667017254,43.752499667017254 0 0,0 -0.46084545981014036,-0.5957048793977532 l 18.1151503430988 -13.766538023212215" fill="#faff18" stroke="none" /><path d="M 83.28015986056508 112.70617746262583 l -18.83461436611074 14.313291908304885 a44.65614135002687,44.65614135002687 0 0,0 -0.45982797332452596,-0.616014714281648 l 19.07820360613035 -13.986964314513928" fill="#eeff19" stroke="none" /><path d="M 82.85270091963577 112.12312394758628 l -14.629572896437589 10.34309395856146 a38.91658437782748,38.91658437782748 0 0,0 -0.38201092380922047,-0.5503152274682035 l 14.805444727408942 -10.089737468906243" fill="#ffc512" stroke="none" /><path d="M 82.6465618267979 111.8261652097733 l -20.169310062841188 13.745148977949746 a45.407584657992274,45.407584657992274 0 0,0 -0.434608738431229,-0.649681095466704 l 20.402921906683147 -13.395930968277222" fill="#e5ff1a" stroke="none" /><path d="M 82.24976979558568 111.22182372390057 l -28.860867159706494 18.246048645870133 a55.144808454546705,55.144808454546705 0 0,0 -0.5003350452061243,-0.806699403018883 l 29.170666844580573 -17.74655291148599" fill="#72ff27" stroke="none" /><path d="M 82.05923443525364 110.91462005526583 l -20.667530552729527 12.573501540363619 a45.191729167910566,45.191729167910566 0 0,0 -0.3985891667696699,-0.6680583703120054 l 20.88090059519743 -12.215881076165502" fill="#e7ff1a" stroke="none" /><line stroke="#e1ed5e" stroke-width="0.3" x1="26.63291911575756" x2="22.317208475507996" y1="142.92168965132927" y2="145.44649492493687" /><path d="M 25.769776987707644 143.4266507060508 a86.0,86.0 0 0,1 -11.730757126820373,-40.83630448921669" fill="none" id="id81" stroke="none" /><text fill="#e1ed5e" style="font-size:6.75px; font-family:Arial;" text-anchor="middle"><textPath startOffset="21.46611528233685" xlink:href="#id81">September</textPath></text><path d="M 81.69416730710424 110.29060199501025 l -20.22647000825802 11.370285969005508 a44.20330778169192,44.20330778169192 0 0,0 -0.3671476027334487,-0.6664795441913623 l 20.419194020442987 -11.020435906416322" fill="#f4ff19" stroke="none" /><path d="M 81.51974371655577 109.97397251340807 l -8.123269788881197 4.384207034286809 a30.230860381483403,30.230860381483403 0 0,0 -0.24321085884072782,-0.46006328852141903 l 8.197533155946811 -4.243728730679264" fill="#ff4b06" stroke="none" /><path d="M 81.35079622478065 109.6543875284942 l -28.561087401526173 14.785607435740712 a53.16131062008276,53.16131062008276 0 0,0 -0.41369962368759006,-0.8162686052290957 l 28.81136569500003 -14.291784618808931" fill="#88ff25" stroke="none" /><path d="M 81.02952815118164 109.00673069616217 l -31.46884034955758 14.940660021940424 a55.83548815270359,55.83548815270359 0 0,0 -0.40474183704669625,-0.8717779094743952 l 31.721356803444102 -14.3967620451872" fill="#6aff28" stroke="none" /><path d="M 80.87730276802145 108.67885076344099 l -30.326209415957926 13.76357333639205 a54.30337713396011,54.30337713396011 0 0,0 -0.37898304991340065,-0.8545067289515058 l 30.558633550602607 -13.239518270947848" fill="#7bff26" stroke="none" /><path d="M 80.45479744820244 107.68017299344265 l -56.847419426760744 22.33786087768946 a82.07871252795907,82.07871252795907 0 0,0 -0.5053927168316675,-1.3194209054340489 l 57.22350642318592 -21.356016405422256" fill="#4ae5ff" stroke="none" /><path d="M 80.20201598880116 107.00284435728193 l -8.517818720744826 3.01288043930016 a30.03497007748164,30.03497007748164 0 0,0 -0.16820894635512443,-0.48889393497044764 l 8.56841849804318 -2.865813801240415" fill="#ff4806" stroke="none" /><path d="M 80.0844068197444 106.66101706037122 l -7.803915249506807 2.6101162111601663 a29.228839520688563,29.228839520688563 0 0,0 -0.15548037467921,-0.47851938950404677 l 7.847687875202266 -2.475397921678316" fill="#ff3c05" stroke="none" /><path d="M 79.76711848015287 105.62410040840567 l -8.595924320365675 2.389394779649663 a29.921834023028627,29.921834023028627 0 0,0 -0.13366784805154497,-0.4974277882598064 l 8.635780244758996 -2.2410760582143174" fill="#ff4606" stroke="none" /><path d="M 79.67330655649465 105.27499134158121 l -36.47170574797321 9.464792321877956 a58.679803792788285,58.679803792788285 0 0,0 -0.2453058501139392,-0.979874932369247 l 36.62922291238221 -8.835589550111317" fill="#4bff2c" stroke="none" /><path d="M 79.50377843672027 104.57218783832718 l -14.217324501929346 3.171524955493826 a35.566773374240455,35.566773374240455 0 0,0 -0.12815209984913667,-0.59868394646434 l 14.269810640502923 -2.926327189613322" fill="#ff970d" stroke="none" /><path d="M 79.4281124754447 104.21870165774334 l -20.509717110916508 4.205952296423557 a41.936535785311094,41.936535785311094 0 0,0 -0.13892988596916453,-0.708400495436314 l 20.57907692986134 -3.8522880739192877" fill="#ffed16" stroke="none" /><path d="M 79.35854240842038 103.8639653848113 l -20.032724720921454 3.750013996912241 a41.38069343082456,41.38069343082456 0 0,0 -0.12503581984081813,-0.7012672796994163 l 20.09430698310146 -3.404627966479611" fill="#ffe615" stroke="none" /><path d="M 79.23777060512086 103.15116336523772 l -27.69114153929128 4.202790996122463 a49.00826256493164,49.00826256493164 0 0,0 -0.11940734581725776,-0.8351346985349626 l 27.75938293612514 -3.7255108256071003" fill="#b9ff1f" stroke="none" /><path d="M 79.18660465613746 102.79330883721812 l -43.0814312590204 5.781841005163657 a64.46768230231159,64.46768230231159 0 0,0 -0.13814040028370003,-1.1011149078132858 l 43.17457316855095 -5.039408343062962" fill="#33ff56" stroke="none" /><path d="M 79.1416061653843 102.43462659150553 l -62.5751815038471 7.303879774516597 a84.0,84.0 0 0,0 -0.15527079399579247,-1.4376147124608716 l 62.69163459934394 -6.225668740170943" fill="#4dd2ff" stroke="none" /><path d="M 79.07016306316243 101.71520430193888 l -23.156928698397365 1.8977149149822508 a44.23455763816487,44.23455763816487 0 0,0 -0.05565853517910126,-0.7594164916067067 l 23.1861637922408 -1.4988252868787835" fill="#f4ff19" stroke="none" /><path d="M 79.04373962182676 101.35467743843564 l -5.798634369989414 0.3748416469831472 a26.81073720083223,26.81073720083223 0 0,0 -0.025806801629725002,-0.4607977791275243 l 5.80422752250667 -0.2749721515201853" fill="#ff1702" stroke="none" /><path d="M 79.0235259727143 100.99374915477108 l -24.022137551320544 1.1380358231973244 a45.04907936012198,45.04907936012198 0 0,0 -0.03002814419327127,-0.7748929745689618 l 24.038167828365015 -0.7243656016143658" fill="#e9ff1a" stroke="none" /><path d="M 79.0095281055655 100.63252640178507 l -28.944193779138132 0.8722036758279103 a49.9573322800362,49.9573322800362 0 0,0 -0.01850309518563691,-0.8597661267600775 l 28.954918937008777 -0.37384773327770393" fill="#adff20" stroke="none" /><line stroke="#e1ed5e" stroke-width="0.3" x1="15.007084014347285" x2="10.007500721073583" y1="101.09737516637583" y2="101.16192664675087" /><path d="M 14.007167355692545 101.11028546245083 a86.0,86.0 0 0,1 10.666146001902534,-42.60595125391555" fill="none" id="id82" stroke="none" /><text fill="#e1ed5e" style="font-size:6.75px; font-family:Arial;" text-anchor="middle"><textPath startOffset="22.20632615414155" xlink:href="#id82">October</textPath></text><path d="M 79.00486145842228 99.54816195383935 l -14.509015889745925 -0.3122496847712613 a35.512375475935684,35.512375475935684 0 0,0 0.018412837847040227,-0.6110324473956231 l 14.50149135744324 0.5619522795918788" fill="#ff960d" stroke="none" /><path d="M 79.01574976396665 99.18683210126434 l -35.53624358045895 -1.3770771981959815 a56.56291536726849,56.56291536726849 0 0,0 0.04607558998704503,-0.972582881721113 l 35.50727438223841 1.9885711865401035" fill="#62ff29" stroke="none" /><path d="M 79.05617556472873 98.46500227214037 l -30.492436133261144 -2.234826801863162 a51.57422300198871,51.57422300198871 0 0,0 0.0725121693210516,-0.8848321323066193 l 30.449449480120595 2.7593728513775595" fill="#9aff22" stroke="none" /><path d="M 79.08570108090925 98.10471618934814 l -45.040633173646604 -4.081646877371516 a66.22519737839241,66.22519737839241 0 0,0 0.11265497155323385,-1.1344201895684078 l 44.96370107641114 4.856342597644353" fill="#36ff6c" stroke="none" /><path d="M 79.26566170972629 96.67025291283419 l -17.59993722065933 -2.8263906411849096 a38.82543896311469,38.82543896311469 0 0,0 0.1116474278401285,-0.6589494391109744 l 17.54867793129898 3.128925868611712" fill="#ffc412" stroke="none" /><path d="M 79.3925641242962 95.95851677861259 l -28.42254818363126 -5.5741651841630615 a49.963987342062836,49.963987342062836 0 0,0 0.17278190188928105,-0.8425459158556222 l 28.322386985826984 6.062586756182086" fill="#adff20" stroke="none" /><path d="M 79.46518482838121 95.60439243477599 l -29.01983637563781 -6.211880226251904 a50.67723638100574,50.67723638100574 0 0,0 0.18993252163855712,-0.8514302524807545 l 28.908609466997213 6.7104886482826185" fill="#a5ff21" stroke="none" /><path d="M 79.71946130924805 94.55025226153421 l -8.439008149498353 -2.2677142002443422 a29.738385791511465,29.738385791511465 0 0,0 0.13709853174379413,-0.4932163631309603 l 8.398722847188198 2.412641866794245" fill="#ff4306" stroke="none" /><path d="M 79.81627453868168 94.20196356495316 l -9.748358674254568 -2.8003422303555854 a31.142603879134153,31.142603879134153 0 0,0 0.1524417155886224,-0.5139576821286252 l 9.698711061554238 2.96772929923075" fill="#ff5808" stroke="none" /><path d="M 79.91906864156998 93.8553929516997 l -6.976387205261421 -2.134719611753748 a28.29568408434338,28.29568408434338 0 0,0 0.14652383224760263,-0.46452058947276825 l 6.938607889245614 2.254490367652931" fill="#ff2e04" stroke="none" /><path d="M 80.02781315780177 93.51064311812611 l -13.795209545803226 -4.482335295091671 a35.505141712863235,35.505141712863235 0 0,0 0.19386264922922034,-0.5796246458916252 l 13.716009602802233 4.719133043905618" fill="#ff960d" stroke="none" /><path d="M 80.2630227832202 92.82701384747504 l -27.23340077494634 -9.89740244918437 a49.97614006402455,49.97614006402455 0 0,0 0.3007978470710799,-0.8059886828698134 l 27.05899833937363 10.364714269083525" fill="#adff20" stroke="none" /><path d="M 80.803312248108 91.48605970444005 l -15.887397404352106 -7.046233949351826 a38.37983915785219,38.37983915785219 0 0,0 0.27304090692868316,-0.6016094454736289 l 15.76375418046007 7.318665403667525" fill="#ffbe11" stroke="none" /><path d="M 80.95270993114464 91.15688171328213 l -26.27388593214383 -12.198222440555456 a49.967459548337615,49.967459548337615 0 0,0 0.36890691321492775,-0.7770120422230741 l 26.06002082508715 12.648676898419064" fill="#adff20" stroke="none" /><path d="M 81.10775173730289 90.83032412892265 l -32.05180561963581 -15.556892145820072 a56.627729884397574,56.627729884397574 0 0,0 0.433175133100346,-0.8732546356253793 l 31.779270473582052 16.106306369944413" fill="#61ff29" stroke="none" /><path d="M 81.26839172434947 90.50648371742162 l -54.65709321417155 -27.701198783964085 a82.2760495845753,82.2760495845753 0 0,0 0.6511192056098636,-1.2577550581576125 l 54.172164575401574 28.63792656438203" fill="#4be3ff" stroke="none" /><path d="M 81.6062741919709 89.86733742301443 l -17.77651560289585 -9.792656271957503 a41.29533502656973,41.29533502656973 0 0,0 0.34834062143932704,-0.6196590966495145 l 17.605317340164092 10.097198878541802" fill="#ffe515" stroke="none" /><line stroke="#e1ed5e" stroke-width="0.3" x1="26.266209847984243" x2="21.928928074336255" y1="57.711370442889674" y2="55.22380399835377" /><path d="M 25.398753493254645 57.213857153982495 a86.0,86.0 0 0,1 29.58750427330803,-30.492523968695096" fill="none" id="id83" stroke="none" /><text fill="#e1ed5e" style="font-size:6.75px; font-family:Arial;" text-anchor="middle"><textPath startOffset="21.46611528233685" xlink:href="#id83">November</textPath></text><path d="M 81.78341655067845 89.55222093294921 l -18.527236482896907 -10.625948275911156 a42.35811949717309,42.35811949717309 0 0,0 0.36819356770661194,-0.6293621589091438 l 18.34158324071997 10.943289847174192" fill="#fff216" stroke="none" /><line stroke="#e1ed5e" stroke-width="0.3" x1="56.762969772571076" x2="54.21961505331055" y1="26.818313649435495" y2="22.513508569990535" /><path d="M 56.25429882871897 25.957352633546506 a86.0,86.0 0 0,1 42.265352541879196,-11.944610805530505" fill="none" id="id84" stroke="none" /><text fill="#e1ed5e" style="font-size:6.75px; font-family:Arial;" text-anchor="middle"><textPath startOffset="22.20632615414155" xlink:href="#id84">December</textPath></text></svg>